<?xml version="1.0" standalone="no"?>
<!DOCTYPE svg PUBLIC "-//W3C//DTD SVG 1.1//EN" "http://www.w3.org/Graphics/SVG/1.1/DTD/svg11.dtd" >
<svg xmlns="http://www.w3.org/2000/svg" xmlns:xlink="http://www.w3.org/1999/xlink" version="1.1">
<metadata>
Created by FontForge 20190801 at Mon Dec 14 00:11:12 1998
 By Jimmy Wärting
Copyright 1990-1998 Bitstream Inc.  All rights reserved.
</metadata>
<defs>
<font id="CharterITCbyBT-Roman" horiz-adv-x="1024" >
  <font-face 
    font-family="CharterITC BT"
    font-weight="400"
    font-stretch="normal"
    units-per-em="2048"
    panose-1="2 4 5 3 5 5 6 2 2 3"
    ascent="1556"
    descent="-492"
    x-height="985"
    cap-height="1374"
    bbox="-311 -483 2443 1972"
    underline-thickness="125"
    underline-position="-285"
    unicode-range="U+0020-F002"
  />
<missing-glyph horiz-adv-x="1229" 
d="M102 -362v1806h1024v-1806h-1024zM217 -248h795v1577h-795v-1577z" />
    <glyph glyph-name=".notdef" horiz-adv-x="1229" 
d="M102 -362v1806h1024v-1806h-1024zM217 -248h795v1577h-795v-1577z" />
    <glyph glyph-name=".null" horiz-adv-x="0" 
 />
    <glyph glyph-name="nonmarkingreturn" horiz-adv-x="569" 
 />
    <glyph glyph-name="space" unicode=" " horiz-adv-x="569" 
 />
    <glyph glyph-name="exclam" unicode="!" horiz-adv-x="692" 
d="M346 215q49 0 83 -34t34 -83q0 -48 -34 -82t-83 -34q-48 0 -82.5 34t-34.5 82q0 49 34.5 83t82.5 34zM453 1133l-58 -783h-98l-57 782q-2 16 -5 43q-6 53 -6 76q0 71 30.5 109.5t86.5 38.5t86.5 -38.5t30.5 -109.5q0 -23 -6 -77q-3 -27 -4 -41z" />
    <glyph glyph-name="quotedbl" unicode="&#x22;" horiz-adv-x="678" 
d="M518 864h-31l-65 457q0 2 -1 6q-3 22 -3 33q0 49 22.5 75.5t63.5 26.5q40 0 62 -26t22 -74q0 -14 -0.5 -23t-1.5 -18zM190 864h-32l-64 457q-2 17 -3 26t-1 15q0 48 22 74t62 26q41 0 63.5 -26t22.5 -74q0 -9 -3 -34q-1 -5 -1 -7z" />
    <glyph glyph-name="numbersign" unicode="#" horiz-adv-x="1526" 
d="M662 866l-101 -299h305l105 299h-309zM758 1454l96 -37l-162 -454h316l163 489l97 -35l-160 -454h285v-97h-318l-100 -299h334v-96h-367l-172 -518l-96 33l164 485h-314l-170 -518l-96 33l168 485h-295v96h326l98 299h-324v97h357z" />
    <glyph glyph-name="dollar" unicode="$" horiz-adv-x="1139" 
d="M616 602v-500q109 17 171.5 85.5t62.5 168.5q0 90 -58 151.5t-176 94.5zM530 1274q-96 -22 -150 -84t-54 -152q0 -85 51 -144t153 -91v471zM530 1522h86v-146h17q69 0 150.5 -11t179.5 -34v-319h-93l-30 190l-31 43q-45 18 -93 26.5t-100 8.5v-502q219 -59 311.5 -148
t92.5 -237t-108 -254t-296 -139v-209h-86v209q-123 4 -226.5 17t-184.5 34v344h94l37 -223l18 -27q55 -25 120 -38t142 -13v535q-187 42 -280.5 135.5t-93.5 236.5q0 144 99 241.5t275 127.5v152z" />
    <glyph glyph-name="percent" unicode="%" horiz-adv-x="1745" 
d="M1370 762q-77 0 -118.5 -91.5t-41.5 -264.5q0 -176 40.5 -266.5t119.5 -90.5q81 0 122.5 90t41.5 267q0 173 -42 264.5t-122 91.5zM1374 834q143 0 225 -114.5t82 -313.5q0 -201 -82 -316t-225 -115t-225 114.5t-82 316.5q0 199 82.5 313.5t224.5 114.5zM367 1325
q-78 0 -119 -90.5t-41 -263.5q0 -176 40.5 -266.5t119.5 -90.5q80 0 121.5 90.5t41.5 266.5q0 173 -41.5 263.5t-121.5 90.5zM1245 1374h125l-876 -1374h-123zM371 1399q142 0 224.5 -114.5t82.5 -313.5q0 -201 -82.5 -315.5t-224.5 -114.5q-143 0 -225.5 114t-82.5 316
q0 199 83 313.5t225 114.5z" />
    <glyph glyph-name="ampersand" unicode="&#x26;" horiz-adv-x="1442" 
d="M457 686q-83 -56 -121.5 -120t-38.5 -144q0 -144 86 -234t225 -90q71 0 140 31t135 92zM637 731l352 -381q47 66 75.5 126t39.5 116l-37 39l-113 16v84h416v-84l-147 -20q-30 -99 -71.5 -185t-98.5 -163l159 -185l187 -10v-84h-361v49l-92 103q-103 -89 -202 -133
t-199 -44q-190 0 -313 114.5t-123 289.5q0 122 67 213.5t203 152.5q-89 88 -128.5 162t-39.5 152q0 143 107 241.5t266 98.5q158 0 256 -88.5t98 -229.5q0 -110 -71 -193t-230 -157zM565 799q105 48 153 116t48 166q0 103 -54.5 163.5t-146.5 60.5q-82 0 -136 -57t-54 -144
q0 -72 42 -141t148 -164z" />
    <glyph glyph-name="quotesingle" unicode="'" horiz-adv-x="348" 
d="M190 864h-32l-66 457q-1 8 -1.5 16t-0.5 23q0 50 21.5 76t62.5 26t63.5 -26t22.5 -74q0 -9 -3 -34q-1 -5 -1 -7z" />
    <glyph glyph-name="parenleft" unicode="(" horiz-adv-x="854" 
d="M791 1470v-86q-206 -36 -303 -230.5t-97 -571.5q0 -366 98 -559t302 -228v-86q-274 32 -424 260t-150 615q0 394 148.5 623t425.5 263z" />
    <glyph glyph-name="parenright" unicode=")" horiz-adv-x="854" 
d="M63 1470q278 -34 426 -262.5t148 -623.5q0 -387 -150 -615t-424 -260v86q204 35 302 228t98 559q0 377 -97 571.5t-303 230.5v86z" />
    <glyph glyph-name="asterisk" unicode="*" 
d="M252 1206l223 -143l-8 -25l-264 17l-92 114zM479 1006l21 -15l-97 -248l-137 -51l8 148zM545 1006l203 -166l8 -148l-138 53l-96 246zM772 1206l143 -37l-94 -114l-262 -17l-8 27zM512 1470l80 -124l-66 -256h-28l-66 256z" />
    <glyph glyph-name="plus" unicode="+" horiz-adv-x="1706" 
d="M795 1221h118v-551h539v-117h-539v-553h-118v553h-539v117h539v551z" />
    <glyph glyph-name="comma" unicode="," horiz-adv-x="569" 
d="M80 -346v67q112 22 168.5 90t56.5 181v22h-131q-17 19 -25 41t-8 49q0 50 34 81.5t87 31.5q75 0 119.5 -53t44.5 -144q0 -143 -97 -246.5t-249 -119.5z" />
    <glyph glyph-name="hyphen" unicode="-" horiz-adv-x="653" 
d="M96 561h461v-137h-461v137z" />
    <glyph glyph-name="period" unicode="." horiz-adv-x="569" 
d="M285 242q54 0 91.5 -38t37.5 -93q0 -54 -38 -91.5t-91 -37.5q-54 0 -92.5 37.5t-38.5 91.5t38 92.5t93 38.5z" />
    <glyph glyph-name="slash" unicode="/" horiz-adv-x="985" 
d="M817 1374h125l-876 -1564h-123z" />
    <glyph glyph-name="zero" unicode="0" horiz-adv-x="1139" 
d="M569 1303q-143 0 -218 -157t-75 -458q0 -300 75 -457t218 -157t218 157t75 457q0 301 -75 458t-218 157zM569 1399q226 0 356 -190t130 -521q0 -332 -130.5 -522.5t-355.5 -190.5q-224 0 -354.5 190.5t-130.5 522.5q0 331 130 521t355 190z" />
    <glyph glyph-name="one" unicode="1" horiz-adv-x="1139" 
d="M637 1399h57v-1272l25 -31l221 -10v-86h-686v86l235 14l25 35v1102l-321 -57v86z" />
    <glyph glyph-name="two" unicode="2" horiz-adv-x="1139" 
d="M289 162h616l37 174h92v-336h-948v129q454 369 582.5 535.5t128.5 322.5q0 144 -74.5 225.5t-204.5 81.5q-48 0 -93.5 -12t-94.5 -37v-219q-17 -15 -39 -23t-47 -8q-53 0 -82 30.5t-29 84.5q0 116 125.5 202.5t304.5 86.5q195 0 308.5 -104.5t113.5 -282.5
q0 -164 -141 -342.5t-555 -507.5z" />
    <glyph glyph-name="three" unicode="3" horiz-adv-x="1139" 
d="M649 723q169 -12 264 -99t95 -229q0 -179 -146 -298.5t-373 -119.5q-167 0 -286 69t-119 157q0 45 32.5 74.5t82.5 29.5q17 0 32 -2.5t29 -7.5l64 -174q44 -25 86.5 -37t87.5 -12q138 0 229.5 92.5t91.5 230.5q0 123 -78.5 189.5t-224.5 66.5q-28 0 -55.5 -2t-52.5 -6
v121q7 0 21 -1t22 -1q152 0 234.5 69t82.5 195q0 121 -71 193.5t-189 72.5q-55 0 -103 -14.5t-92 -44.5v-193q-18 -14 -37.5 -20t-46.5 -6q-48 0 -79 31t-31 79q0 110 126 191.5t306 81.5q183 0 293 -94t110 -250q0 -120 -78 -204.5t-227 -127.5z" />
    <glyph glyph-name="four" unicode="4" horiz-adv-x="1139" 
d="M715 1163l-506 -633h506v633zM754 1386h125v-856h225v-133h-225v-473h-164v473h-660v133z" />
    <glyph glyph-name="five" unicode="5" horiz-adv-x="1139" 
d="M207 1374h733v-160h-606v-409q58 16 113 24.5t106 8.5q202 0 325 -108.5t123 -285.5q0 -200 -150 -332t-382 -132q-159 0 -263 56t-104 138q0 48 33.5 78.5t85.5 30.5q10 0 22.5 -1.5t27.5 -5.5l81 -176q36 -12 70 -18t67 -6q143 0 233.5 91.5t90.5 235.5
q0 156 -104.5 232t-321.5 76q-55 0 -100 -3t-80 -10v676z" />
    <glyph glyph-name="six" unicode="6" horiz-adv-x="1139" 
d="M297 696q-3 -51 -3.5 -75t-0.5 -43q0 -244 78 -374t225 -130q128 0 210.5 105t82.5 267q0 156 -81 249t-214 93q-85 0 -159.5 -23t-137.5 -69zM907 1462v-119h-6q-246 0 -398.5 -141.5t-201.5 -415.5q80 62 168 93.5t180 31.5q185 0 305.5 -126.5t120.5 -319.5
q0 -208 -142.5 -349t-352.5 -141q-215 0 -346.5 162t-131.5 430q0 394 214.5 632.5t590.5 262.5z" />
    <glyph glyph-name="seven" unicode="7" horiz-adv-x="1139" 
d="M145 1374h942v-82l-679 -1323v-45h-170l667 1295h-631l-32 -187h-97v342z" />
    <glyph glyph-name="eight" unicode="8" horiz-adv-x="1139" 
d="M449 674q-106 -56 -153.5 -127t-47.5 -172q0 -137 87.5 -219t233.5 -82q131 0 211 76t80 198q0 100 -77.5 166.5t-333.5 159.5zM743 719q144 -50 218.5 -140t74.5 -210q0 -172 -133.5 -287t-339.5 -115q-215 0 -344 108.5t-129 286.5q0 122 71 211.5t210 143.5
q-106 44 -160.5 124.5t-54.5 190.5q0 165 117.5 268t306.5 103q178 0 288.5 -96t110.5 -248q0 -103 -61.5 -192t-174.5 -148zM657 756q81 52 123.5 127t42.5 164q0 114 -69.5 186t-180.5 72q-105 0 -176 -70t-71 -172q0 -98 79 -171.5t252 -135.5z" />
    <glyph glyph-name="nine" unicode="9" horiz-adv-x="1139" 
d="M258 -106l-47 94q240 112 389 250.5t215 312.5q-86 -40 -163 -60t-144 -20q-188 0 -304 122t-116 320q0 213 139.5 347.5t360.5 134.5q216 0 338.5 -139t122.5 -386q0 -313 -211 -574.5t-580 -401.5zM842 653q12 54 18 109t6 110q0 204 -77.5 315t-219.5 111
q-129 0 -208.5 -100t-79.5 -264q0 -170 78.5 -261t224.5 -91q59 0 123.5 17.5t134.5 53.5z" />
    <glyph glyph-name="colon" unicode=":" horiz-adv-x="653" 
d="M326 242q54 0 92.5 -38.5t38.5 -92.5t-38.5 -91.5t-92.5 -37.5t-91.5 37.5t-37.5 91.5q0 55 37.5 93t91.5 38zM326 985q54 0 92.5 -37.5t38.5 -91.5t-39 -92.5t-92 -38.5q-54 0 -91.5 38.5t-37.5 92.5q0 55 37 92t92 37z" />
    <glyph glyph-name="semicolon" unicode=";" horiz-adv-x="653" 
d="M133 -346v67q112 22 168.5 90t56.5 181v22h-133q-16 19 -24 41t-8 49q0 50 33.5 81.5t86.5 31.5q76 0 120 -53t44 -144q0 -144 -96 -247t-248 -119zM326 985q54 0 92.5 -37.5t38.5 -91.5t-39 -92.5t-92 -38.5q-54 0 -91.5 38.5t-37.5 92.5q0 55 37 92t92 37z" />
    <glyph glyph-name="less" unicode="&#x3c;" horiz-adv-x="1706" 
d="M1442 1145v-127l-1000 -408l1000 -405v-129l-1178 483v103z" />
    <glyph glyph-name="equal" unicode="=" horiz-adv-x="1706" 
d="M254 477h1198v-117h-1198v117zM254 860h1198v-117h-1198v117z" />
    <glyph glyph-name="greater" unicode="&#x3e;" horiz-adv-x="1706" 
d="M264 1145l1178 -483v-103l-1178 -483v129l1000 405l-1000 408v127z" />
    <glyph glyph-name="question" unicode="?" horiz-adv-x="995" 
d="M410 215q49 0 83.5 -34t34.5 -83q0 -48 -35 -82t-83 -34t-81.5 33.5t-33.5 82.5t33.5 83t81.5 34zM465 590v-240h-109v299q148 56 222.5 148t74.5 219q0 137 -75 213t-211 76h-11l-84 -203q-6 -1 -13.5 -1.5t-22.5 -0.5q-59 0 -91 28.5t-32 79.5q0 81 85 136t216 55
q194 0 310 -100.5t116 -268.5q0 -142 -91.5 -250t-283.5 -190z" />
    <glyph glyph-name="at" unicode="@" horiz-adv-x="1929" 
d="M1133 922q-11 0 -29 2t-23 2q-137 0 -235 -132.5t-98 -324.5q0 -110 43.5 -168.5t126.5 -58.5q54 0 107 33t108 102l84 430zM1432 999q-21 -54 -45 -169q-7 -33 -11 -50l-80 -352q-8 -34 -12 -62.5t-4 -50.5q0 -40 23 -64t63 -24q43 0 90 28t90 79q68 81 106 194.5
t38 233.5q0 255 -163 411t-431 156q-156 0 -294.5 -52.5t-246.5 -152.5q-128 -118 -191 -266t-63 -330q0 -334 201.5 -537.5t531.5 -203.5q139 0 274.5 37.5t262.5 112.5l28 -70q-159 -89 -317 -134.5t-305 -45.5q-172 0 -323 58.5t-269 172.5q-114 109 -171.5 257
t-57.5 329q0 204 74.5 375t222.5 305q121 111 286 172t342 61q322 0 512.5 -177.5t190.5 -475.5q0 -113 -28.5 -215t-84.5 -189q-71 -110 -179 -176.5t-212 -66.5q-76 0 -114 38.5t-38 114.5v19q-85 -89 -157.5 -130.5t-141.5 -41.5q-112 0 -184 91t-72 236q0 96 29.5 185
t85.5 166q74 99 179.5 156t215.5 57q49 0 98.5 -14t102.5 -42l37 47h111z" />
    <glyph glyph-name="A" unicode="A" horiz-adv-x="1309" 
d="M614 1176l-202 -568h413zM582 1391h135l491 -1282l123 -25v-84h-465v84l127 10l15 29l-148 391h-483l-146 -391l21 -29l133 -10v-84h-401v84l118 25z" />
    <glyph glyph-name="B" unicode="B" horiz-adv-x="1237" 
d="M404 102q37 -3 71 -4.5t66 -1.5q210 0 305.5 69.5t95.5 221.5q0 139 -83.5 207t-254.5 68q-41 0 -90.5 -3.5t-110.5 -9.5zM404 752q13 -1 29 -1.5t46 -0.5q191 0 284 68t93 208q0 132 -82.5 195t-253.5 63q-18 0 -57 -2.5t-60 -3.5zM68 1374h522q238 0 353.5 -81.5
t115.5 -250.5q0 -116 -74.5 -194.5t-222.5 -118.5q184 -3 282.5 -90t98.5 -248q0 -186 -140 -288.5t-395 -102.5h-540v84l116 10l35 29v1128l-35 29l-116 12v82z" />
    <glyph glyph-name="C" unicode="C" horiz-adv-x="1294" 
d="M1204 47q-101 -35 -206 -53.5t-207 -18.5q-101 0 -189 21t-160 61q-165 94 -259.5 262.5t-94.5 368.5q0 320 195.5 515.5t515.5 195.5q90 0 191.5 -17.5t213.5 -52.5v-315h-114l-31 186l-27 37q-59 27 -115 40t-114 13q-235 0 -369.5 -160t-134.5 -442q0 -278 144 -441
t391 -163q44 0 88.5 6.5t89.5 20.5l32 32l50 228h110v-324z" />
    <glyph glyph-name="D" unicode="D" horiz-adv-x="1419" 
d="M403 1280v-1186h162q280 0 418.5 147.5t138.5 446.5t-137.5 445.5t-419.5 146.5h-162zM573 1374q360 0 558 -179.5t198 -506.5q0 -183 -64.5 -324.5t-191.5 -236.5q-88 -67 -202 -97t-298 -30h-505v84l116 10l35 29v1128l-35 29l-116 12v82h505z" />
    <glyph glyph-name="E" unicode="E" horiz-adv-x="1180" 
d="M68 0v84l116 10l35 29v1128l-35 29l-116 12v82h981v-299h-115l-29 174l-28 31h-474v-518h336l29 29l20 149h97v-451h-97l-20 148l-29 31h-336v-574h549l29 33l35 207h106v-334h-1054z" />
    <glyph glyph-name="F" unicode="F" horiz-adv-x="1100" 
d="M68 0v84l116 10l35 29v1128l-35 29l-133 12v82h983v-319h-112l-31 194l-27 31h-461v-539h336l29 29l20 150h97v-453h-97l-20 149l-29 31h-336v-524l35 -29l146 -10v-84h-516z" />
    <glyph glyph-name="G" unicode="G" horiz-adv-x="1421" 
d="M854 659h512v-84l-113 -10l-34 -28v-490q-125 -36 -230 -54t-194 -18q-102 0 -191.5 21t-161.5 61q-165 94 -259.5 262t-94.5 369q0 326 199 518.5t536 192.5q93 0 192 -15t202 -45v-325h-115l-31 186l-29 37q-58 27 -115.5 40t-117.5 13q-237 0 -373.5 -157t-136.5 -431
q0 -287 141.5 -452.5t384.5 -165.5q47 0 99.5 6.5t109.5 20.5v426l-35 28l-145 10v84z" />
    <glyph glyph-name="H" unicode="H" horiz-adv-x="1511" 
d="M68 1374h497v-82l-127 -12l-35 -29v-483h705v483l-35 29l-127 12v82h498v-82l-117 -12l-35 -29v-1128l35 -29l117 -10v-84h-498v84l127 10l35 29v551h-705v-551l35 -29l127 -10v-84h-497v84l116 10l35 29v1128l-35 29l-116 12v82z" />
    <glyph glyph-name="I" unicode="I" horiz-adv-x="664" 
d="M72 0v84l131 10l35 29v1128l-35 29l-131 12v82h520v-82l-131 -12l-35 -29v-1128l35 -29l131 -10v-84h-520z" />
    <glyph glyph-name="J" unicode="J" horiz-adv-x="909" 
d="M555 1251l-35 29l-137 12v82h518v-82l-127 -12l-35 -29v-727q0 -284 -108 -416.5t-338 -132.5q-64 0 -130.5 12.5t-137.5 37.5v342h114l49 -258l29 -27q20 -4 37.5 -6t34.5 -2q139 0 202.5 104t63.5 338v735z" />
    <glyph glyph-name="K" unicode="K" horiz-adv-x="1251" 
d="M68 0v84l116 10l35 29v1128l-35 29l-116 12v82h497v-82l-127 -12l-35 -29v-555h78l455 555l-12 29l-115 12v82h426v-82l-135 -18l-430 -512l465 -668l149 -10v-84h-338v61l-391 551h-152v-489l35 -29l127 -10v-84h-497z" />
    <glyph glyph-name="L" unicode="L" horiz-adv-x="1065" 
d="M55 0v84l129 10l35 29v1128l-35 29l-129 12v82h500v-82l-117 -12l-35 -29v-1157h463l29 33l35 246h106v-373h-981z" />
    <glyph glyph-name="M" unicode="M" horiz-adv-x="1774" 
d="M63 0v84l123 16l37 39v1112l-26 29l-136 12v82h435v-55l385 -1028l389 1020v63h438v-82l-129 -12l-25 -29v-1128l25 -29l129 -10v-84h-489v84l135 10l20 29v1155l-485 -1278h-88l-467 1257v-1118l37 -39l125 -16v-84h-433z" />
    <glyph glyph-name="N" unicode="N" horiz-adv-x="1460" 
d="M59 0v84l125 16l37 39v1112l-37 29l-131 12v82h385v-51l699 -1049v963l-37 37l-123 18v82h430v-82l-123 -18l-37 -37v-1237h-135l-780 1163v-1024l37 -39l123 -16v-84h-433z" />
    <glyph glyph-name="O" unicode="O" horiz-adv-x="1497" 
d="M750 1298q-206 0 -327.5 -164.5t-121.5 -445.5q0 -279 123 -445.5t326 -166.5q202 0 324 166.5t122 445.5t-122 444.5t-324 165.5zM750 1409q131 0 244 -45t206 -135q104 -101 157.5 -238t53.5 -303q0 -167 -54 -305t-159 -240q-90 -87 -203.5 -131.5t-244.5 -44.5
q-132 0 -246.5 45t-204.5 131q-104 101 -157.5 239t-53.5 306q0 167 53 304t156 237q92 89 206.5 134.5t246.5 45.5z" />
    <glyph glyph-name="P" unicode="P" horiz-adv-x="1143" 
d="M403 625q64 -6 92 -8.5t44 -2.5q174 0 266 89t92 258q0 163 -94.5 241t-292.5 78q-42 0 -64.5 -1t-42.5 -3v-651zM68 0v84l116 10l35 29v1128l-35 29l-133 12v82h467q303 0 436 -96t133 -309q0 -211 -141 -332t-389 -121q-29 0 -67 2.5t-86 7.5l-1 -403l35 -29l146 -10
v-84h-516z" />
    <glyph glyph-name="Q" unicode="Q" horiz-adv-x="1497" 
d="M750 80q206 0 329 165.5t123 444.5q0 281 -123 445.5t-329 164.5q-209 0 -331 -164t-122 -446q0 -279 123.5 -444.5t329.5 -165.5zM848 -23q5 -122 77.5 -182.5t213.5 -60.5q46 0 93.5 5.5t98.5 16.5v-84q-77 -16 -149.5 -24t-139.5 -8q-196 0 -292.5 83.5t-96.5 253.5
q-263 41 -418 233.5t-155 479.5q0 166 54.5 304t160.5 239q92 88 207.5 133t247.5 45q133 0 249.5 -45.5t206.5 -132.5q105 -100 159 -238t54 -305q0 -287 -153.5 -478t-417.5 -235z" />
    <glyph glyph-name="R" unicode="R" horiz-adv-x="1323" 
d="M403 1280v-571q4 -1 12 -1q65 -3 95 -3q192 0 280.5 68t88.5 216q0 153 -89 222t-288 69h-99zM68 1374h522q251 0 372 -90.5t121 -277.5q0 -133 -83 -218.5t-248 -121.5q77 -21 129 -54.5t82 -83.5q33 -55 58 -161t38 -142q31 -84 85 -114.5t181 -30.5h18v-78
q-46 -9 -85 -13.5t-74 -4.5q-73 0 -122.5 14t-84.5 45q-73 64 -121 250q-18 67 -29 100q-41 125 -110.5 173t-210.5 48q-30 0 -96 -3l-7 -1v-487l35 -29l117 -10v-84h-487v84l116 10l35 29v1128l-35 29l-116 12v82z" />
    <glyph glyph-name="S" unicode="S" horiz-adv-x="1139" 
d="M123 41v360h121l24 -235l27 -35q45 -23 103 -35t126 -12q144 0 227 66.5t83 179.5q0 57 -17 97t-53 69q-62 48 -212 111q-40 17 -61 26q-210 91 -278 169.5t-68 203.5q0 176 129.5 284.5t343.5 108.5q86 0 172.5 -14.5t176.5 -43.5v-317h-107l-31 195l-30 34
q-39 22 -85 32.5t-100 10.5q-128 0 -203 -66.5t-75 -180.5q0 -83 52.5 -137.5t234.5 -131.5q18 -7 55 -22q176 -71 254 -146q44 -42 67 -99.5t23 -125.5q0 -185 -145 -298.5t-385 -113.5q-106 0 -199.5 17t-169.5 49z" />
    <glyph glyph-name="T" unicode="T" horiz-adv-x="1223" 
d="M33 1374h1157v-315h-113l-28 190l-29 31h-313v-1157l34 -29l138 -10v-84h-535v84l137 10l35 29v1157h-313l-29 -31l-29 -190h-112v315z" />
    <glyph glyph-name="U" unicode="U" horiz-adv-x="1421" 
d="M51 1374h502v-82l-127 -12l-35 -29v-741q0 -215 87.5 -313.5t277.5 -98.5q189 0 276.5 98.5t87.5 313.5v727l-39 37l-123 18v82h433v-82l-123 -18l-37 -37v-745q0 -147 -21 -225t-69 -136q-61 -74 -172 -115t-252 -41q-142 0 -252.5 41t-171.5 115q-48 59 -69 138
t-21 223v759l-35 29l-117 12v82z" />
    <glyph glyph-name="V" unicode="V" horiz-adv-x="1266" 
d="M-47 1374h477v-82l-119 -12l-22 -29l385 -1032l370 1032l-20 29l-127 12v82h408v-82l-127 -24l-471 -1268h-142l-481 1268l-131 24v82z" />
    <glyph glyph-name="W" unicode="W" horiz-adv-x="1901" 
d="M473 0l-344 1264l-129 28v82h459v-82l-129 -16l-17 -29l265 -946l329 1073h144l335 -1095l248 960l-22 29l-137 24v82h423v-82l-137 -28l-325 -1264h-140l-346 1120l-340 -1120h-137z" />
    <glyph glyph-name="X" unicode="X" horiz-adv-x="1229" 
d="M23 1374h493v-82l-123 -12l-16 -25l268 -421l291 413l-18 27l-119 18v82h418v-82l-132 -20l-374 -535l397 -628l139 -25v-84h-518v84l137 14l15 29l-289 465l-324 -459l13 -37l137 -12v-84h-436v84l135 27l411 575l-370 580l-135 26v82z" />
    <glyph glyph-name="Y" unicode="Y" horiz-adv-x="1200" 
d="M-27 1374h476v-82l-117 -12l-21 -23l314 -563l344 547l-19 29l-125 22v82h418v-82l-125 -26l-426 -682v-461l33 -29l139 -10v-84h-530v84l139 10l33 29v434l-408 715l-125 20v82z" />
    <glyph glyph-name="Z" unicode="Z" horiz-adv-x="1200" 
d="M137 1374h957v-86l-779 -1188h619l22 27l37 244h111v-371h-1012v84l776 1192h-546l-39 -27l-33 -192h-113v317z" />
    <glyph glyph-name="bracketleft" unicode="[" horiz-adv-x="862" 
d="M285 1450h485v-88h-324v-1546h324v-86h-485v1720z" />
    <glyph glyph-name="backslash" unicode="\" horiz-adv-x="985" 
d="M27 1374h125l876 -1564h-125z" />
    <glyph glyph-name="bracketright" unicode="]" horiz-adv-x="862" 
d="M94 1450h484v-1722h-484v88h324v1546h-324v88z" />
    <glyph glyph-name="asciicircum" unicode="^" horiz-adv-x="2048" 
d="M934 1462h178l520 -565h-92l-518 436l-520 -436h-90z" />
    <glyph glyph-name="underscore" unicode="_" 
d="M0 -365h1024v-118h-1024v118z" />
    <glyph glyph-name="grave" unicode="`" 
d="M213 1507h203l198 -389h-102z" />
    <glyph glyph-name="a" unicode="a" horiz-adv-x="1038" 
d="M684 188v361q-250 -68 -334 -127.5t-84 -151.5q0 -81 43.5 -127.5t120.5 -46.5q48 0 110.5 23t143.5 69zM684 119q-101 -69 -182 -101t-154 -32q-119 0 -190.5 72t-71.5 190q0 130 109 205.5t489 167.5v65q0 129 -42 179t-146 50q-38 0 -77 -8t-79 -24v-172h-141
q-37 0 -50.5 13.5t-13.5 49.5q0 100 115.5 166t298.5 66q161 0 234 -70t73 -225v-594l35 -33l108 -10v-74h-288z" />
    <glyph glyph-name="b" unicode="b" horiz-adv-x="1104" 
d="M347 94q28 -3 53 -4.5t49 -1.5q205 0 302 100t97 312q0 191 -83.5 294t-238.5 103q-35 0 -78.5 -8t-101.5 -25zM268 1507h78v-573q76 36 145.5 54t135.5 18q183 0 294 -131.5t111 -350.5q0 -254 -153 -389t-441 -135h-264v1370h-158v64z" />
    <glyph glyph-name="c" unicode="c" horiz-adv-x="913" 
d="M870 86q-86 -50 -169 -75t-164 -25q-208 0 -334.5 139.5t-126.5 368.5q0 227 134.5 369.5t350.5 142.5q143 0 225 -53.5t82 -145.5q0 -47 -30.5 -78t-77.5 -31q-29 0 -52.5 7t-45.5 22v168q-24 14 -49 21.5t-50 7.5q-135 0 -218 -114t-83 -302q0 -187 93.5 -294.5
t254.5 -107.5q65 0 129 21.5t131 65.5v-107z" />
    <glyph glyph-name="d" unicode="d" horiz-adv-x="1157" 
d="M784 182v703q-57 17 -101 25t-79 8q-157 0 -253.5 -116t-96.5 -306q0 -177 83.5 -281t223.5 -104q53 0 108.5 17.5t114.5 53.5zM784 1370h-157v64l250 73h77v-1390l35 -33l98 -10v-74h-303v106q-80 -64 -156 -94t-159 -30q-172 0 -283.5 134.5t-111.5 344.5
q0 243 147.5 395t382.5 152q41 0 85.5 -5.5t94.5 -17.5v385z" />
    <glyph glyph-name="e" unicode="e" horiz-adv-x="1006" 
d="M735 625q0 6 1 18t1 16q0 121 -55.5 187.5t-155.5 66.5q-107 0 -181 -80.5t-83 -207.5h473zM918 217v-113q-91 -60 -189 -91t-197 -31q-203 0 -329.5 139.5t-126.5 363.5q0 229 132.5 375t340.5 146q170 0 269.5 -108t99.5 -294q0 -27 -0.5 -40t-2.5 -25h-663v-23
q0 -193 93 -305.5t251 -112.5q73 0 150 28.5t172 90.5z" />
    <glyph glyph-name="f" unicode="f" horiz-adv-x="657" 
d="M59 0v74l109 10l37 33v745h-131v66l131 30v23q0 247 114 395t302 148q69 0 114 -33.5t45 -83.5q0 -38 -22 -65t-62 -37l-186 122q-67 -31 -100 -110.5t-33 -208.5v-150h285v-96h-287v-745l35 -33l127 -10v-74h-478z" />
    <glyph glyph-name="g" unicode="g" horiz-adv-x="1071" 
d="M422 61q-83 -25 -129.5 -79t-46.5 -123q0 -93 77.5 -152t200.5 -59q130 0 214.5 62.5t84.5 154.5q0 70 -37 103t-165 57zM504 926q-92 0 -146.5 -68.5t-54.5 -183.5q0 -114 55.5 -183t145.5 -69t145.5 69t55.5 183t-55 183t-146 69zM756 948h293v-96h-228q30 -42 45 -89
t15 -101q0 -141 -108.5 -230.5t-283.5 -89.5h-34q-12 -23 -17.5 -46.5t-5.5 -49.5q0 -12 3 -39q1 -4 1 -6l197 -31q193 -29 272.5 -87t79.5 -165q0 -59 -34 -120.5t-93 -108.5q-79 -66 -183.5 -100.5t-221.5 -34.5q-174 0 -272.5 70t-98.5 194q0 99 60 167.5t163 86.5
q-11 22 -16.5 45t-5.5 47q0 39 24 87t74 107q-118 28 -186 111t-68 199q0 151 109.5 244.5t287.5 93.5q60 0 116.5 -14t115.5 -44z" />
    <glyph glyph-name="h" unicode="h" horiz-adv-x="1155" 
d="M289 1507h78v-624q121 67 197.5 95t133.5 28q135 0 206 -80t71 -232v-577l35 -33l108 -10v-74h-446v74l96 10l35 33v542q0 115 -48 163t-159 48q-47 0 -104.5 -16.5t-124.5 -50.5v-686l36 -33l97 -10v-74h-449v74l111 10l35 33v1253h-158v64z" />
    <glyph glyph-name="i" unicode="i" horiz-adv-x="573" 
d="M307 995h80v-878l35 -33l110 -10v-74h-460v74l108 10l35 33v741h-143v64zM315 1450q50 0 84.5 -35t34.5 -84t-34.5 -83t-84.5 -34q-49 0 -83.5 34t-34.5 83t34.5 84t83.5 35z" />
    <glyph glyph-name="j" unicode="j" horiz-adv-x="545" 
d="M180 1331q0 49 35 84t84 35t84 -35t35 -84t-35 -83t-84 -34t-84 34t-35 83zM223 858h-145v64l237 73h78v-823q0 -225 -26.5 -320.5t-90.5 -164.5q-59 -65 -135 -99t-159 -34q-66 0 -104 29.5t-38 80.5q0 36 19.5 63t56.5 44l199 -121q55 18 81.5 95.5t26.5 221.5v891z
" />
    <glyph glyph-name="k" unicode="k" horiz-adv-x="1059" 
d="M51 0v74l111 10l35 33v1253h-158v64l250 73h78v-985h39l313 350l-14 29l-93 8v76h389v-76l-131 -16l-280 -297l360 -508l131 -14v-74h-319v74l-277 391h-118v-348l36 -33l97 -10v-74h-449z" />
    <glyph glyph-name="l" unicode="l" horiz-adv-x="578" 
d="M57 0v74l121 10l35 33v1253h-158v64l250 73h78v-1390l37 -33l117 -10v-74h-480z" />
    <glyph glyph-name="m" unicode="m" horiz-adv-x="1726" 
d="M930 868q118 70 205 104t147 34q125 0 194.5 -82t69.5 -230v-577l35 -33l109 -10v-74h-447v74l96 10l37 33v542q0 109 -45 160t-139 51q-49 0 -106 -16.5t-125 -50.5v-686l36 -33l97 -10v-74h-437v74l99 10l35 33v542q0 108 -44.5 159.5t-136.5 51.5q-50 0 -108.5 -16.5
t-124.5 -50.5v-686l35 -33l98 -10v-74h-449v74l111 10l35 33v741h-146v64l238 73h78v-112q107 63 186.5 93t141.5 30q75 0 132.5 -35t92.5 -103z" />
    <glyph glyph-name="n" unicode="n" horiz-adv-x="1163" 
d="M61 0v74l111 10l35 33v741h-146v64l238 73h78v-112q123 68 198 95.5t132 27.5q134 0 205 -80t71 -232v-577l35 -33l110 -10v-74h-448v74l98 10l35 33v542q0 115 -47.5 163t-159.5 48q-47 0 -104.5 -16.5t-124.5 -50.5v-686l35 -33l98 -10v-74h-449z" />
    <glyph glyph-name="o" unicode="o" horiz-adv-x="1104" 
d="M551 915q-129 0 -206 -114t-77 -307q0 -192 78 -307t205 -115q129 0 207 114.5t78 307.5q0 192 -78.5 306.5t-206.5 114.5zM551 1006q209 0 343 -143.5t134 -368.5t-134.5 -368.5t-342.5 -143.5t-341.5 143t-133.5 369t132.5 369t342.5 143z" />
    <glyph glyph-name="p" unicode="p" horiz-adv-x="1128" 
d="M362 119q50 -17 93.5 -25t81.5 -8q151 0 245.5 114t94.5 300q0 173 -81.5 275t-217.5 102q-51 0 -104 -17.5t-112 -52.5v-688zM47 -446v73l111 11l32 32v1188h-143v64l238 73h77v-112q82 63 155.5 93t146.5 30q172 0 282.5 -133.5t110.5 -344.5q0 -242 -137.5 -388
t-366.5 -146q-40 0 -86.5 4.5t-103.5 13.5l-1 -342l35 -32l131 -11v-73h-481z" />
    <glyph glyph-name="q" unicode="q" horiz-adv-x="1087" 
d="M762 897q-42 11 -81.5 17t-74.5 6q-161 0 -253.5 -113t-92.5 -309q0 -188 82 -292t229 -104q35 0 83 8t108 23v764zM940 972q-3 -65 -4.5 -101.5t-1.5 -47.5v-1153l35 -35l108 -8v-73h-479v73l129 8l35 35v398q-78 -37 -147 -55.5t-128 -18.5q-185 0 -298 128t-113 337
q0 256 152 402.5t419 146.5q64 0 137.5 -9t155.5 -27z" />
    <glyph glyph-name="r" unicode="r" horiz-adv-x="782" 
d="M61 0v74l109 10l35 33v741h-144v64l238 73h78v-194q48 51 102.5 100.5t116.5 99.5q9 3 19.5 4t31.5 1q31 0 61 -6.5t62 -20.5v-176h-65q-21 25 -46.5 37t-58.5 12q-41 0 -91 -37t-132 -133v-565l35 -33l143 -10v-74h-494z" />
    <glyph glyph-name="s" unicode="s" horiz-adv-x="819" 
d="M705 961v-232h-101l-16 145q-41 22 -78 33t-74 11q-80 0 -125 -39t-45 -109q0 -57 36 -97t138 -89q15 -7 46 -21q120 -54 173 -98q37 -29 56.5 -74.5t19.5 -101.5q0 -144 -101.5 -225.5t-281.5 -81.5q-72 0 -139.5 10.5t-126.5 32.5v266h98l25 -174q42 -24 86.5 -35.5
t95.5 -11.5q82 0 133 45.5t51 117.5q0 62 -36 102.5t-172 102.5q-154 69 -209.5 130t-55.5 151q0 137 95 212t268 75q69 0 128.5 -11.5t111.5 -33.5z" />
    <glyph glyph-name="t" unicode="t" horiz-adv-x="684" 
d="M180 862h-129v64l135 59l88 191h76v-218h312v-96h-312v-540q0 -133 37 -178.5t133 -45.5q33 0 68.5 4t73.5 13v-76q-70 -22 -138 -33.5t-131 -11.5q-118 0 -165.5 44.5t-47.5 162.5v661z" />
    <glyph glyph-name="u" unicode="u" horiz-adv-x="1165" 
d="M291 1006h78v-678q0 -112 48 -164.5t150 -52.5q57 0 115.5 15t122.5 46v694h-146v64l238 76h78v-889l37 -33l96 -10v-74h-303v115q-97 -70 -178 -102.5t-154 -32.5q-133 0 -203.5 80.5t-70.5 232.5v573h-146v64z" />
    <glyph glyph-name="v" unicode="v" horiz-adv-x="1012" 
d="M-10 985h444v-76l-108 -8l-25 -33l240 -669l262 669l-17 33l-110 8v76h362v-76l-120 -16l-359 -893h-115l-329 897l-125 12v76z" />
    <glyph glyph-name="w" unicode="w" horiz-adv-x="1579" 
d="M-4 985h444v-76l-108 -8l-25 -33l187 -665l274 782h125l242 -782l208 665l-16 33l-110 8v76h362v-76l-115 -16l-293 -893h-127l-247 776l-277 -776h-127l-272 897l-125 12v76z" />
    <glyph glyph-name="x" unicode="x" horiz-adv-x="1030" 
d="M37 985h440v-76l-94 -12l-10 -20l172 -269l186 262l-16 27l-99 12v76h369v-76l-115 -20l-270 -359l301 -438l123 -16v-76h-436v76l86 14l10 16l-190 306l-209 -297l10 -25l117 -14v-76h-387v76l116 16l295 395l-274 400l-125 22v76z" />
    <glyph glyph-name="y" unicode="y" horiz-adv-x="1014" 
d="M-2 985h444v-76l-108 -8l-25 -33l246 -637l256 637l-16 33l-111 8v76h365v-76l-119 -16l-410 -995q-75 -181 -153 -262.5t-174 -81.5q-64 0 -103 31.5t-39 82.5q0 30 13.5 58t39.5 53l197 -78q45 48 87.5 127t78.5 180l-344 889l-125 12v76z" />
    <glyph glyph-name="z" unicode="z" horiz-adv-x="958" 
d="M92 0v102l547 789h-379l-29 -33l-22 -158h-96v285h739v-78l-567 -813h440l31 33l22 174h105v-301h-791z" />
    <glyph glyph-name="braceleft" unicode="{" horiz-adv-x="995" 
d="M856 1440v-76q-151 -5 -206.5 -56.5t-55.5 -189.5v-166q0 -169 -60 -248t-206 -110q143 -32 204.5 -110.5t61.5 -227.5v-8v-170q0 -172 53 -221.5t209 -51.5v-79h-51q-215 0 -294 79t-81 296v173q0 155 -55.5 216t-194.5 61q-7 0 -22.5 -1t-24.5 -1v89q9 0 20.5 -0.5
t32.5 -0.5q135 0 189.5 58.5t54.5 205.5v209q0 174 94 252t305 78h27z" />
    <glyph glyph-name="bar" unicode="|" 
d="M449 1565h126v-2048h-126v2048z" />
    <glyph glyph-name="braceright" unicode="}" horiz-adv-x="995" 
d="M131 1440h27q211 0 305 -78t94 -252v-209q0 -147 54.5 -205.5t189.5 -58.5q21 0 32.5 0.5t20.5 0.5v-89q-8 0 -24 1t-23 1q-138 0 -194 -59.5t-56 -206.5v-11v-174q0 -216 -79.5 -296t-289.5 -80q-9 0 -27.5 1t-29.5 1v79q155 2 207.5 50.5t54.5 221.5v171
q0 154 61.5 234t204.5 112q-146 31 -206 110t-60 248v166q0 138 -55.5 189.5t-205.5 56.5z" />
    <glyph glyph-name="asciitilde" unicode="~" horiz-adv-x="1706" 
d="M1530 758v-131q-101 -72 -197.5 -108t-189.5 -36q-43 0 -90.5 9t-100.5 26q-30 10 -87 31q-202 72 -302 72q-83 0 -173.5 -37.5t-211.5 -122.5v133q105 73 202 109t185 36q56 0 116.5 -12.5t174.5 -52.5q12 -4 35 -13q164 -59 254 -59q85 0 176 36.5t209 119.5z" />
    <glyph glyph-name="Adieresis" unicode="&#xc4;" horiz-adv-x="1309" 
d="M614 1176l-202 -568h413zM582 1391h135l491 -1282l123 -25v-84h-465v84l127 10l15 29l-148 391h-483l-146 -391l21 -29l133 -10v-84h-401v84l118 25zM845 1778q43 0 73 -30.5t30 -74.5q0 -43 -30 -72.5t-73 -29.5t-73.5 30t-30.5 72q0 45 30 75t74 30zM465 1778
q42 0 72 -30.5t30 -74.5q0 -43 -29.5 -72.5t-72.5 -29.5q-44 0 -74.5 30t-30.5 72q0 45 30 75t75 30z" />
    <glyph glyph-name="Aring" unicode="&#xc5;" horiz-adv-x="1309" 
d="M614 1176l-202 -568h413zM582 1391h135l491 -1282l123 -25v-84h-465v84l127 10l15 29l-148 391h-483l-146 -391l21 -29l133 -10v-84h-401v84l118 25zM629 1882q-62 0 -107 -44.5t-45 -106.5t45 -106t107 -44t105.5 44t43.5 106q0 63 -43.5 107t-105.5 44zM627 1972
q101 0 171 -69t70 -170q0 -102 -70 -172t-171 -70t-170.5 70t-69.5 172q0 101 69 170t171 69z" />
    <glyph glyph-name="Ccedilla" unicode="&#xc7;" horiz-adv-x="1294" 
d="M1204 47q-101 -35 -206 -53.5t-207 -18.5q-101 0 -189 21t-160 61q-165 94 -259.5 262.5t-94.5 368.5q0 320 195.5 515.5t515.5 195.5q90 0 191.5 -17.5t213.5 -52.5v-315h-114l-31 186l-27 37q-59 27 -115 40t-114 13q-235 0 -369.5 -160t-134.5 -442q0 -278 144 -441
t391 -163q44 0 88.5 6.5t89.5 20.5l32 32l50 228h110v-324zM707 0h75l1 -125q6 1 14.5 1.5t23.5 0.5q74 0 115 -39t41 -108q0 -86 -65 -136.5t-177 -50.5q-32 0 -67.5 5.5t-73.5 15.5v74q30 -9 59.5 -13t61.5 -4q63 0 100 24t37 64q0 36 -27 56t-75 20q-7 0 -16.5 -1
t-26.5 -3v219z" />
    <glyph glyph-name="Eacute" unicode="&#xc9;" horiz-adv-x="1180" 
d="M68 0v84l116 10l35 29v1128l-35 29l-116 12v82h981v-299h-115l-29 174l-28 31h-474v-518h336l29 29l20 149h97v-451h-97l-20 148l-29 31h-336v-574h549l29 33l35 207h106v-334h-1054zM699 1827h204l-288 -303h-103z" />
    <glyph glyph-name="Ntilde" unicode="&#xd1;" horiz-adv-x="1460" 
d="M59 0v84l125 16l37 39v1112l-37 29l-131 12v82h385v-51l699 -1049v963l-37 37l-123 18v82h430v-82l-123 -18l-37 -37v-1237h-135l-780 1163v-1024l37 -39l123 -16v-84h-433zM958 1798h84v-22q0 -96 -46 -152.5t-124 -56.5q-68 0 -168 50t-127 50q-31 0 -51 -28t-20 -74
v-17h-88v13q0 103 44.5 160t125.5 57q63 0 162 -52.5t131 -52.5q37 0 57 32.5t20 92.5z" />
    <glyph glyph-name="Odieresis" unicode="&#xd6;" horiz-adv-x="1497" 
d="M750 1298q-206 0 -327.5 -164.5t-121.5 -445.5q0 -279 123 -445.5t326 -166.5q202 0 324 166.5t122 445.5t-122 444.5t-324 165.5zM750 1409q131 0 244 -45t206 -135q104 -101 157.5 -238t53.5 -303q0 -167 -54 -305t-159 -240q-90 -87 -203.5 -131.5t-244.5 -44.5
q-132 0 -246.5 45t-204.5 131q-104 101 -157.5 239t-53.5 306q0 167 53 304t156 237q92 89 206.5 134.5t246.5 45.5zM940 1778q43 0 73 -30.5t30 -74.5q0 -43 -30 -72.5t-73 -29.5t-73.5 30t-30.5 72q0 45 30 75t74 30zM560 1778q42 0 72 -30.5t30 -74.5q0 -43 -29.5 -72.5
t-72.5 -29.5q-44 0 -74.5 30t-30.5 72q0 45 30 75t75 30z" />
    <glyph glyph-name="Udieresis" unicode="&#xdc;" horiz-adv-x="1421" 
d="M51 1374h502v-82l-127 -12l-35 -29v-741q0 -215 87.5 -313.5t277.5 -98.5q189 0 276.5 98.5t87.5 313.5v727l-39 37l-123 18v82h433v-82l-123 -18l-37 -37v-745q0 -147 -21 -225t-69 -136q-61 -74 -172 -115t-252 -41q-142 0 -252.5 41t-171.5 115q-48 59 -69 138
t-21 223v759l-35 29l-117 12v82zM962 1778q43 0 73 -30.5t30 -74.5q0 -43 -30 -72.5t-73 -29.5t-73.5 30t-30.5 72q0 45 30 75t74 30zM582 1778q42 0 72 -30.5t30 -74.5q0 -43 -29.5 -72.5t-72.5 -29.5q-44 0 -74.5 30t-30.5 72q0 45 30 75t75 30z" />
    <glyph glyph-name="aacute" unicode="&#xe1;" horiz-adv-x="1038" 
d="M684 188v361q-250 -68 -334 -127.5t-84 -151.5q0 -81 43.5 -127.5t120.5 -46.5q48 0 110.5 23t143.5 69zM684 119q-101 -69 -182 -101t-154 -32q-119 0 -190.5 72t-71.5 190q0 130 109 205.5t489 167.5v65q0 129 -42 179t-146 50q-38 0 -77 -8t-79 -24v-172h-141
q-37 0 -50.5 13.5t-13.5 49.5q0 100 115.5 166t298.5 66q161 0 234 -70t73 -225v-594l35 -33l108 -10v-74h-288zM641 1507h203l-299 -389h-103z" />
    <glyph glyph-name="agrave" unicode="&#xe0;" horiz-adv-x="1038" 
d="M684 188v361q-250 -68 -334 -127.5t-84 -151.5q0 -81 43.5 -127.5t120.5 -46.5q48 0 110.5 23t143.5 69zM684 119q-101 -69 -182 -101t-154 -32q-119 0 -190.5 72t-71.5 190q0 130 109 205.5t489 167.5v65q0 129 -42 179t-146 50q-38 0 -77 -8t-79 -24v-172h-141
q-37 0 -50.5 13.5t-13.5 49.5q0 100 115.5 166t298.5 66q161 0 234 -70t73 -225v-594l35 -33l108 -10v-74h-288zM221 1507h203l198 -389h-102z" />
    <glyph glyph-name="acircumflex" unicode="&#xe2;" horiz-adv-x="1038" 
d="M684 188v361q-250 -68 -334 -127.5t-84 -151.5q0 -81 43.5 -127.5t120.5 -46.5q48 0 110.5 23t143.5 69zM684 119q-101 -69 -182 -101t-154 -32q-119 0 -190.5 72t-71.5 190q0 130 109 205.5t489 167.5v65q0 129 -42 179t-146 50q-38 0 -77 -8t-79 -24v-172h-141
q-37 0 -50.5 13.5t-13.5 49.5q0 100 115.5 166t298.5 66q161 0 234 -70t73 -225v-594l35 -33l108 -10v-74h-288zM454 1507h132l225 -389h-111l-180 289l-178 -289h-113z" />
    <glyph glyph-name="adieresis" unicode="&#xe4;" horiz-adv-x="1038" 
d="M684 188v361q-250 -68 -334 -127.5t-84 -151.5q0 -81 43.5 -127.5t120.5 -46.5q48 0 110.5 23t143.5 69zM684 119q-101 -69 -182 -101t-154 -32q-119 0 -190.5 72t-71.5 190q0 130 109 205.5t489 167.5v65q0 129 -42 179t-146 50q-38 0 -77 -8t-79 -24v-172h-141
q-37 0 -50.5 13.5t-13.5 49.5q0 100 115.5 166t298.5 66q161 0 234 -70t73 -225v-594l35 -33l108 -10v-74h-288zM710 1415q43 0 73 -30.5t30 -73.5t-30 -73t-73 -30t-73.5 30t-30.5 73q0 44 30 74t74 30zM330 1415q42 0 72 -30.5t30 -73.5t-29.5 -73t-72.5 -30
q-44 0 -74.5 30t-30.5 73q0 44 30 74t75 30z" />
    <glyph glyph-name="atilde" unicode="&#xe3;" horiz-adv-x="1038" 
d="M684 188v361q-250 -68 -334 -127.5t-84 -151.5q0 -81 43.5 -127.5t120.5 -46.5q48 0 110.5 23t143.5 69zM684 119q-101 -69 -182 -101t-154 -32q-119 0 -190.5 72t-71.5 190q0 130 109 205.5t489 167.5v65q0 129 -42 179t-146 50q-38 0 -77 -8t-79 -24v-172h-141
q-37 0 -50.5 13.5t-13.5 49.5q0 100 115.5 166t298.5 66q161 0 234 -70t73 -225v-594l35 -33l108 -10v-74h-288zM747 1450h84q0 -5 1 -15t1 -14q0 -97 -48 -157t-124 -60q-70 0 -171 51.5t-124 51.5q-33 0 -53 -29.5t-20 -79.5q0 -4 1 -12t1 -12h-88v20q0 110 44.5 167.5
t129.5 57.5q61 0 158.5 -53t127.5 -53q41 0 60.5 31.5t19.5 95.5v10z" />
    <glyph glyph-name="aring" unicode="&#xe5;" horiz-adv-x="1038" 
d="M684 549q-250 -68 -334 -127.5t-84 -151.5q0 -81 43.5 -127.5t120.5 -46.5q48 0 110.5 23t143.5 69v361zM856 711v-594l35 -33l108 -10v-74h-288l-27 119q-101 -69 -182 -101t-154 -32q-119 0 -190.5 72t-71.5 190q0 130 109 205.5t489 167.5v65q0 129 -42 179t-146 50
q-38 0 -77 -8t-79 -24v-172h-141q-37 0 -50.5 13.5t-13.5 49.5q0 100 115.5 166t298.5 66q161 0 234 -70t73 -225zM512 1509q-62 0 -106 -44t-44 -107q0 -62 44.5 -106t105.5 -44q63 0 107.5 44t44.5 106q0 63 -44.5 107t-107.5 44zM512 1599q102 0 172 -69t70 -170
q0 -102 -70.5 -172t-171.5 -70t-170.5 70t-69.5 172q0 101 69.5 170t170.5 69z" />
    <glyph glyph-name="ccedilla" unicode="&#xe7;" horiz-adv-x="913" 
d="M870 86q-86 -50 -169 -75t-164 -25q-208 0 -334.5 139.5t-126.5 368.5q0 227 134.5 369.5t350.5 142.5q143 0 225 -53.5t82 -145.5q0 -47 -30.5 -78t-77.5 -31q-29 0 -52.5 7t-45.5 22v168q-24 14 -49 21.5t-50 7.5q-135 0 -218 -114t-83 -302q0 -187 93.5 -294.5
t254.5 -107.5q65 0 129 21.5t131 65.5v-107zM443 0h75l1 -125q6 1 14.5 1.5t23.5 0.5q74 0 115 -39t41 -108q0 -86 -65 -136.5t-177 -50.5q-32 0 -67.5 5.5t-73.5 15.5v74q30 -9 59.5 -13t61.5 -4q63 0 100 24t37 64q0 36 -27 56t-75 20q-7 0 -16.5 -1t-26.5 -3v219z" />
    <glyph glyph-name="eacute" unicode="&#xe9;" horiz-adv-x="1006" 
d="M735 625q0 6 1 18t1 16q0 121 -55.5 187.5t-155.5 66.5q-107 0 -181 -80.5t-83 -207.5h473zM918 217v-113q-91 -60 -189 -91t-197 -31q-203 0 -329.5 139.5t-126.5 363.5q0 229 132.5 375t340.5 146q170 0 269.5 -108t99.5 -294q0 -27 -0.5 -40t-2.5 -25h-663v-23
q0 -193 93 -305.5t251 -112.5q73 0 150 28.5t172 90.5zM647 1507h203l-299 -389h-103z" />
    <glyph glyph-name="egrave" unicode="&#xe8;" horiz-adv-x="1006" 
d="M735 625q0 6 1 18t1 16q0 121 -55.5 187.5t-155.5 66.5q-107 0 -181 -80.5t-83 -207.5h473zM918 217v-113q-91 -60 -189 -91t-197 -31q-203 0 -329.5 139.5t-126.5 363.5q0 229 132.5 375t340.5 146q170 0 269.5 -108t99.5 -294q0 -27 -0.5 -40t-2.5 -25h-663v-23
q0 -193 93 -305.5t251 -112.5q73 0 150 28.5t172 90.5zM227 1507h203l198 -389h-102z" />
    <glyph glyph-name="ecircumflex" unicode="&#xea;" horiz-adv-x="1006" 
d="M735 625q0 6 1 18t1 16q0 121 -55.5 187.5t-155.5 66.5q-107 0 -181 -80.5t-83 -207.5h473zM918 217v-113q-91 -60 -189 -91t-197 -31q-203 0 -329.5 139.5t-126.5 363.5q0 229 132.5 375t340.5 146q170 0 269.5 -108t99.5 -294q0 -27 -0.5 -40t-2.5 -25h-663v-23
q0 -193 93 -305.5t251 -112.5q73 0 150 28.5t172 90.5zM460 1507h132l225 -389h-111l-180 289l-178 -289h-113z" />
    <glyph glyph-name="edieresis" unicode="&#xeb;" horiz-adv-x="1006" 
d="M735 625q0 6 1 18t1 16q0 121 -55.5 187.5t-155.5 66.5q-107 0 -181 -80.5t-83 -207.5h473zM918 217v-113q-91 -60 -189 -91t-197 -31q-203 0 -329.5 139.5t-126.5 363.5q0 229 132.5 375t340.5 146q170 0 269.5 -108t99.5 -294q0 -27 -0.5 -40t-2.5 -25h-663v-23
q0 -193 93 -305.5t251 -112.5q73 0 150 28.5t172 90.5zM716 1415q43 0 73 -30.5t30 -73.5t-30 -73t-73 -30t-73.5 30t-30.5 73q0 44 30 74t74 30zM336 1415q42 0 72 -30.5t30 -73.5t-29.5 -73t-72.5 -30q-44 0 -74.5 30t-30.5 73q0 44 30 74t75 30z" />
    <glyph glyph-name="iacute" unicode="&#xed;" horiz-adv-x="573" 
d="M307 995h80v-878l35 -33l110 -10v-74h-460v74l108 10l35 33v741h-143v64zM408 1507h203l-299 -389h-103z" />
    <glyph glyph-name="igrave" unicode="&#xec;" horiz-adv-x="573" 
d="M307 995h80v-878l35 -33l110 -10v-74h-460v74l108 10l35 33v741h-143v64zM-12 1507h203l198 -389h-102z" />
    <glyph glyph-name="icircumflex" unicode="&#xee;" horiz-adv-x="573" 
d="M307 995h80v-878l35 -33l110 -10v-74h-460v74l108 10l35 33v741h-143v64zM221 1507h132l225 -389h-111l-180 289l-178 -289h-113z" />
    <glyph glyph-name="idieresis" unicode="&#xef;" horiz-adv-x="573" 
d="M307 995h80v-878l35 -33l110 -10v-74h-460v74l108 10l35 33v741h-143v64zM477 1415q43 0 73 -30.5t30 -73.5t-30 -73t-73 -30t-73.5 30t-30.5 73q0 44 30 74t74 30zM97 1415q42 0 72 -30.5t30 -73.5t-29.5 -73t-72.5 -30q-44 0 -74.5 30t-30.5 73q0 44 30 74t75 30z" />
    <glyph glyph-name="ntilde" unicode="&#xf1;" horiz-adv-x="1163" 
d="M61 0v74l111 10l35 33v741h-146v64l238 73h78v-112q123 68 198 95.5t132 27.5q134 0 205 -80t71 -232v-577l35 -33l110 -10v-74h-448v74l98 10l35 33v542q0 115 -47.5 163t-159.5 48q-47 0 -104.5 -16.5t-124.5 -50.5v-686l35 -33l98 -10v-74h-449zM786 1450h84
q0 -5 1 -15t1 -14q0 -97 -48 -157t-124 -60q-70 0 -171 51.5t-124 51.5q-33 0 -53 -29.5t-20 -79.5q0 -4 1 -12t1 -12h-88v20q0 110 44.5 167.5t129.5 57.5q61 0 158.5 -53t127.5 -53q41 0 60.5 31.5t19.5 95.5v10z" />
    <glyph glyph-name="oacute" unicode="&#xf3;" horiz-adv-x="1104" 
d="M551 915q-129 0 -206 -114t-77 -307q0 -192 78 -307t205 -115q129 0 207 114.5t78 307.5q0 192 -78.5 306.5t-206.5 114.5zM551 1006q209 0 343 -143.5t134 -368.5t-134.5 -368.5t-342.5 -143.5t-341.5 143t-133.5 369t132.5 369t342.5 143zM674 1507h203l-299 -389h-103
z" />
    <glyph glyph-name="ograve" unicode="&#xf2;" horiz-adv-x="1104" 
d="M551 915q-129 0 -206 -114t-77 -307q0 -192 78 -307t205 -115q129 0 207 114.5t78 307.5q0 192 -78.5 306.5t-206.5 114.5zM551 1006q209 0 343 -143.5t134 -368.5t-134.5 -368.5t-342.5 -143.5t-341.5 143t-133.5 369t132.5 369t342.5 143zM254 1507h203l198 -389h-102z
" />
    <glyph glyph-name="ocircumflex" unicode="&#xf4;" horiz-adv-x="1104" 
d="M551 915q-129 0 -206 -114t-77 -307q0 -192 78 -307t205 -115q129 0 207 114.5t78 307.5q0 192 -78.5 306.5t-206.5 114.5zM551 1006q209 0 343 -143.5t134 -368.5t-134.5 -368.5t-342.5 -143.5t-341.5 143t-133.5 369t132.5 369t342.5 143zM487 1507h132l225 -389h-111
l-180 289l-178 -289h-113z" />
    <glyph glyph-name="odieresis" unicode="&#xf6;" horiz-adv-x="1104" 
d="M551 915q-129 0 -206 -114t-77 -307q0 -192 78 -307t205 -115q129 0 207 114.5t78 307.5q0 192 -78.5 306.5t-206.5 114.5zM551 1006q209 0 343 -143.5t134 -368.5t-134.5 -368.5t-342.5 -143.5t-341.5 143t-133.5 369t132.5 369t342.5 143zM743 1415q43 0 73 -30.5
t30 -73.5t-30 -73t-73 -30t-73.5 30t-30.5 73q0 44 30 74t74 30zM363 1415q42 0 72 -30.5t30 -73.5t-29.5 -73t-72.5 -30q-44 0 -74.5 30t-30.5 73q0 44 30 74t75 30z" />
    <glyph glyph-name="otilde" unicode="&#xf5;" horiz-adv-x="1104" 
d="M551 915q-129 0 -206 -114t-77 -307q0 -192 78 -307t205 -115q129 0 207 114.5t78 307.5q0 192 -78.5 306.5t-206.5 114.5zM551 1006q209 0 343 -143.5t134 -368.5t-134.5 -368.5t-342.5 -143.5t-341.5 143t-133.5 369t132.5 369t342.5 143zM780 1450h84q0 -5 1 -15
t1 -14q0 -97 -48 -157t-124 -60q-70 0 -171 51.5t-124 51.5q-33 0 -53 -29.5t-20 -79.5q0 -4 1 -12t1 -12h-88v20q0 110 44.5 167.5t129.5 57.5q61 0 158.5 -53t127.5 -53q41 0 60.5 31.5t19.5 95.5v10z" />
    <glyph glyph-name="uacute" unicode="&#xfa;" horiz-adv-x="1165" 
d="M291 1006h78v-678q0 -112 48 -164.5t150 -52.5q57 0 115.5 15t122.5 46v694h-146v64l238 76h78v-889l37 -33l96 -10v-74h-303v115q-97 -70 -178 -102.5t-154 -32.5q-133 0 -203.5 80.5t-70.5 232.5v573h-146v64zM705 1507h203l-299 -389h-103z" />
    <glyph glyph-name="ugrave" unicode="&#xf9;" horiz-adv-x="1165" 
d="M291 1006h78v-678q0 -112 48 -164.5t150 -52.5q57 0 115.5 15t122.5 46v694h-146v64l238 76h78v-889l37 -33l96 -10v-74h-303v115q-97 -70 -178 -102.5t-154 -32.5q-133 0 -203.5 80.5t-70.5 232.5v573h-146v64zM285 1507h203l198 -389h-102z" />
    <glyph glyph-name="ucircumflex" unicode="&#xfb;" horiz-adv-x="1165" 
d="M291 1006h78v-678q0 -112 48 -164.5t150 -52.5q57 0 115.5 15t122.5 46v694h-146v64l238 76h78v-889l37 -33l96 -10v-74h-303v115q-97 -70 -178 -102.5t-154 -32.5q-133 0 -203.5 80.5t-70.5 232.5v573h-146v64zM518 1507h132l225 -389h-111l-180 289l-178 -289h-113z
" />
    <glyph glyph-name="udieresis" unicode="&#xfc;" horiz-adv-x="1165" 
d="M291 1006h78v-678q0 -112 48 -164.5t150 -52.5q57 0 115.5 15t122.5 46v694h-146v64l238 76h78v-889l37 -33l96 -10v-74h-303v115q-97 -70 -178 -102.5t-154 -32.5q-133 0 -203.5 80.5t-70.5 232.5v573h-146v64zM774 1415q43 0 73 -30.5t30 -73.5t-30 -73t-73 -30
t-73.5 30t-30.5 73q0 44 30 74t74 30zM394 1415q42 0 72 -30.5t30 -73.5t-29.5 -73t-72.5 -30q-44 0 -74.5 30t-30.5 73q0 44 30 74t75 30z" />
    <glyph glyph-name="dagger" unicode="&#x2020;" 
d="M498 942h28l86 -340l-86 -866h-28l-84 866zM840 1077l149 -88l-149 -100l-289 78v32zM180 1077l295 -78v-32l-295 -78l-145 100zM510 1470l94 -155l-78 -287h-28l-78 287z" />
    <glyph glyph-name="degree" unicode="&#xb0;" horiz-adv-x="674" 
d="M338 1372q-84 0 -143.5 -58.5t-59.5 -142.5q0 -83 59.5 -142.5t143.5 -59.5t142.5 59.5t58.5 142.5q0 84 -58.5 142.5t-142.5 58.5zM338 1454q117 0 200 -82.5t83 -200.5q0 -116 -83.5 -199t-201.5 -83t-199.5 82t-81.5 200q0 119 82.5 201t200.5 82z" />
    <glyph glyph-name="cent" unicode="&#xa2;" horiz-adv-x="1139" 
d="M559 930q-121 -34 -186.5 -144.5t-65.5 -279.5q0 -156 67.5 -265.5t184.5 -142.5v832zM559 1231h94v-201q6 0 18.5 1t18.5 1q60 0 124.5 -12t135.5 -37v-301h-92l-33 213q-33 21 -71.5 31t-85.5 10h-15v-842q49 0 92 10t80 29l29 223h96v-311q-56 -22 -123.5 -32.5
t-148.5 -10.5h-25v-203h-94v207q-197 28 -312.5 162t-115.5 336q0 209 114.5 348.5t313.5 171.5v207z" />
    <glyph glyph-name="sterling" unicode="&#xa3;" horiz-adv-x="1139" 
d="M854 1087v193q-27 9 -53.5 13.5t-52.5 4.5q-150 0 -213.5 -107t-63.5 -366q0 -41 0.5 -63t1.5 -41h385v-96h-385v-29q0 -159 -51.5 -270.5t-153.5 -173.5l4 -7l10 1q107 10 130 10h624v-156h-960v117q128 36 177.5 125.5t49.5 310.5v72h-147v96h145q-2 53 -3 78.5
t-1 46.5q0 130 19.5 219t60.5 152q55 82 148 132t194 50q138 0 229.5 -59t91.5 -144q0 -51 -33.5 -84t-86.5 -33q-16 0 -32 2t-34 6z" />
    <glyph glyph-name="section" unicode="&#xa7;" 
d="M457 868q-88 -38 -133 -98t-45 -137q0 -94 63.5 -161t228.5 -140q88 58 130 119t42 131q0 91 -70.5 161.5t-215.5 124.5zM831 1423v-264h-92l-20 164q-56 31 -104.5 46t-92.5 15q-89 0 -148 -49.5t-59 -124.5q0 -101 226 -207q49 -23 75 -36q143 -71 211 -154t68 -186
q0 -107 -67 -196t-183 -136q109 -49 161 -115.5t52 -156.5q0 -138 -106 -224t-279 -86q-65 0 -138 16t-153 48l-4 264h98l29 -184q49 -27 98 -40.5t99 -13.5q93 0 152 48t59 122q0 122 -286 255q-40 18 -60 28q-116 55 -177 140t-61 192q0 109 59.5 187.5t182.5 131.5
q-111 54 -159 118t-48 157q0 135 104 211.5t289 76.5q66 0 135 -11.5t139 -35.5z" />
    <glyph glyph-name="bullet" unicode="&#x2022;" horiz-adv-x="1208" 
d="M307 762q0 123 87 209t210 86q122 0 208.5 -86.5t86.5 -208.5t-87.5 -209.5t-209.5 -87.5q-123 0 -209 87t-86 210z" />
    <glyph glyph-name="paragraph" unicode="&#xb6;" horiz-adv-x="991" 
d="M938 1374v-74l-127 -20v-1442h-100v1452h-156v-715h-31q-239 0 -355 97.5t-116 298.5q0 210 115.5 306.5t368.5 96.5h401z" />
    <glyph glyph-name="germandbls" unicode="&#xdf;" horiz-adv-x="1247" 
d="M989 954q-2 1 -6 1q-30 3 -43 3q-86 0 -135 -42.5t-49 -116.5q0 -97 180 -193q38 -20 58 -31q100 -55 148 -122t48 -152q0 -135 -96.5 -225t-245.5 -90q-40 0 -97.5 10t-138.5 31v270h103l20 -178q29 -21 60 -31t65 -10q78 0 127 48t49 122q0 110 -183 213l-7 4
q-165 92 -208.5 148t-43.5 137q0 98 68.5 174t181.5 102q11 49 15.5 83t4.5 60q0 113 -59 183.5t-154 70.5q-78 0 -139.5 -42t-103.5 -124q-28 -51 -40 -132t-12 -242v-764l17 -37l135 -10v-72h-469v72l119 14l22 31v803q0 269 138.5 433.5t363.5 164.5q164 0 254 -88.5
t90 -249.5q0 -53 -9 -109.5t-28 -116.5z" />
    <glyph glyph-name="registered" unicode="&#xae;" horiz-adv-x="1843" 
d="M793 727q9 -1 20 -1.5t31 -0.5q128 0 194 43t66 127q0 86 -67.5 131t-194.5 45q-8 0 -24.5 -1t-24.5 -1v-342zM520 1147h432q98 0 144 -8.5t80 -28.5q48 -29 78 -78.5t30 -99.5q0 -93 -62 -152.5t-186 -87.5q49 -8 85 -27t63 -53q35 -41 60 -128q8 -30 13 -43
q26 -65 68 -89t131 -24v-74q-42 -8 -73 -12t-54 -4q-48 0 -87.5 14t-74.5 45q-45 38 -84 155q-17 53 -28 78q-30 67 -73 92t-130 25q-23 0 -35.5 -0.5t-23.5 -1.5v-307l129 -14v-76h-392v76l109 14v719l-119 20v70zM928 1487q155 0 302.5 -62.5t258.5 -175.5
q108 -109 166.5 -255.5t58.5 -305.5q0 -153 -63 -299t-178 -260q-112 -109 -253.5 -166t-304.5 -57q-151 0 -293 60t-253 171q-113 111 -172.5 254.5t-59.5 304.5q0 158 59 300t171 255q111 113 257 174.5t304 61.5zM928 1403q-139 0 -268 -54.5t-228 -154.5
q-100 -104 -152.5 -230.5t-52.5 -267.5q0 -145 52.5 -271.5t152.5 -225.5q104 -103 229 -155t265 -52q142 0 267.5 53t223.5 154q100 103 153.5 231.5t53.5 265.5q0 141 -53.5 272t-151.5 228q-98 98 -227 152.5t-264 54.5z" />
    <glyph glyph-name="copyright" unicode="&#xa9;" horiz-adv-x="1843" 
d="M1247 260q-73 -25 -149 -38t-152 -13q-218 0 -355.5 135t-137.5 348q0 217 139 350.5t366 133.5q70 0 142 -12t147 -36v-245h-88l-31 153q-38 23 -77 34t-82 11q-147 0 -242.5 -109.5t-95.5 -277.5q0 -166 94.5 -277.5t232.5 -111.5q35 0 77.5 9.5t97.5 29.5l26 172h88
v-256zM928 1487q155 0 302.5 -62.5t258.5 -175.5q108 -109 166.5 -255.5t58.5 -305.5q0 -153 -63 -299t-178 -260q-112 -109 -253.5 -166t-304.5 -57q-151 0 -293 60t-253 171q-113 111 -172.5 254.5t-59.5 304.5q0 158 59 300t171 255q111 113 257 174.5t304 61.5z
M928 1403q-139 0 -268 -54.5t-228 -154.5q-100 -104 -152.5 -230.5t-52.5 -267.5q0 -145 52.5 -271.5t152.5 -225.5q104 -103 229 -155t265 -52q142 0 267.5 53t223.5 154q100 103 153.5 231.5t53.5 265.5q0 141 -53.5 272t-151.5 228q-98 98 -227 152.5t-264 54.5z" />
    <glyph glyph-name="trademark" unicode="&#x2122;" horiz-adv-x="1683" 
d="M774 817v43l64 10v428l-66 11v47h209v-25l139 -368l142 366v27h204v-47l-65 -11v-428l65 -10v-43h-219v43l62 10v435l-189 -488h-45l-180 488v-435l63 -10v-43h-184zM524 1309v-439l78 -10v-43h-250v43l80 8v441h-106l-17 -13l-12 -82h-55v142h469v-142h-54l-12 82
l-14 13h-107z" />
    <glyph glyph-name="acute" unicode="&#xb4;" 
d="M633 1507h203l-299 -389h-103z" />
    <glyph glyph-name="dieresis" unicode="&#xa8;" 
d="M702 1415q43 0 73 -30.5t30 -73.5t-30 -73t-73 -30t-73.5 30t-30.5 73q0 44 30 74t74 30zM322 1415q42 0 72 -30.5t30 -73.5t-29.5 -73t-72.5 -30q-44 0 -74.5 30t-30.5 73q0 44 30 74t75 30z" />
    <glyph glyph-name="notequal" unicode="&#x2260;" horiz-adv-x="1706" 
d="M1210 1180l88 -70l-196 -250h350v-115h-424l-211 -270h635v-115h-709l-251 -319l-89 70l197 249h-346v115h420l211 270h-631v115h704z" />
    <glyph glyph-name="AE" unicode="&#xc6;" horiz-adv-x="1774" 
d="M872 1284l-423 -674h423v674zM580 1374h1060v-299h-112l-29 174l-29 31h-421v-518h282l31 29l20 149h95v-451h-95l-20 148l-31 31h-282v-574h495l31 33l33 207h106v-334h-993v84l117 10l34 29v391h-477l-245 -391l10 -29l131 -10v-84h-406v84l117 18l715 1149l-19 29
l-118 12v82z" />
    <glyph glyph-name="Oslash" unicode="&#xd8;" horiz-adv-x="1497" 
d="M1069 1151l-588 -979q59 -47 126.5 -70.5t142.5 -23.5q208 0 332 165t124 445q0 141 -33.5 255t-103.5 208zM995 1219q-52 40 -112.5 59.5t-132.5 19.5q-209 0 -333 -165t-124 -445q0 -135 29.5 -243t89.5 -195zM1184 1532l84 -49l-125 -205q134 -106 201 -253t67 -337
q0 -165 -54.5 -304.5t-158.5 -240.5q-89 -86 -203.5 -131t-244.5 -45q-91 0 -174.5 22.5t-165.5 67.5l-127 -215l-80 56l129 217q-123 105 -183.5 248t-60.5 325q0 166 53.5 304t157.5 239q88 87 203.5 132.5t247.5 45.5q78 0 156 -18t159 -56z" />
    <glyph glyph-name="infinity" unicode="&#x221e;" horiz-adv-x="1706" 
d="M905 559q51 -95 119 -141.5t156 -46.5q102 0 168.5 71t66.5 181q0 108 -61 179.5t-152 71.5q-85 0 -153.5 -72.5t-143.5 -242.5zM803 666q-51 95 -119 142.5t-154 47.5q-105 0 -171 -71t-66 -183q0 -108 61 -179t152 -71q85 0 152 69t145 245zM866 494
q-71 -138 -148 -201.5t-173 -63.5q-134 0 -226 109t-92 272q0 172 82.5 277.5t214.5 105.5q97 0 172 -63t144 -203q67 138 146 204t175 66q134 0 226 -108.5t92 -272.5q0 -171 -82 -277t-213 -106q-96 0 -169 60t-149 201z" />
    <glyph glyph-name="plusminus" unicode="&#xb1;" horiz-adv-x="1706" 
d="M254 158h1198v-117h-1198v117zM795 1180h118v-344h539v-117h-539v-344h-118v344h-541v117h541v344z" />
    <glyph glyph-name="lessequal" unicode="&#x2264;" horiz-adv-x="1706" 
d="M262 150h1182v-117h-1182v117zM1444 1192v-125l-977 -324l977 -323v-125l-1182 399v101z" />
    <glyph glyph-name="greaterequal" unicode="&#x2265;" horiz-adv-x="1706" 
d="M262 150h1182v-117h-1182v117zM262 1192l1182 -397v-101l-1182 -399v125l979 323l-979 324v125z" />
    <glyph glyph-name="yen" unicode="&#xa5;" horiz-adv-x="1139" 
d="M-12 1374h434v-82l-107 -12l-18 -23l287 -561l313 545l-18 29l-113 22v82h379v-82l-113 -26l-225 -394h295v-86h-350l-121 -213h471v-86h-463v-364l35 -29l147 -10v-84h-528v84l141 10l39 29v364h-444v86h442l-109 213h-333v86h278l-203 400l-116 20v82z" />
    <glyph glyph-name="mu" unicode="&#xb5;" horiz-adv-x="1120" 
d="M164 193q-27 -136 -52 -339q-34 -272 -112 -272q-37 0 -58.5 23.5t-21.5 64.5q0 40 64.5 273.5t105.5 427.5l109 514h147l-104 -492q-6 -30 -9.5 -58.5t-3.5 -53.5q0 -83 42 -129t118 -46q98 0 163.5 68.5t94.5 200.5l111 510h149l-114 -531q-13 -59 -17 -87.5t-4 -49.5
q0 -48 26 -78t66 -30q35 0 65.5 18t51.5 51t41 93.5t39 60.5q12 0 19 -10t7 -27q0 -25 -11 -66.5t-29 -83.5q-38 -82 -95 -122.5t-135 -40.5q-68 0 -108.5 51t-40.5 139v23q-46 -110 -116 -164t-165 -54q-96 0 -152.5 54.5t-70.5 161.5z" />
    <glyph glyph-name="partialdiff" unicode="&#x2202;" horiz-adv-x="1044" 
d="M754 604q13 81 19.5 161.5t6.5 158.5q0 140 -39.5 216.5t-111.5 76.5q-53 0 -117 -63.5t-109 -63.5q-29 0 -51 21.5t-22 51.5q0 59 68 105.5t163 46.5q171 0 273 -152.5t102 -412.5q0 -335 -139 -555t-344 -220q-147 0 -241.5 106.5t-94.5 272.5q0 189 108.5 316
t266.5 127q99 0 162.5 -47t99.5 -146zM709 483q0 117 -45 180.5t-127 63.5q-113 0 -184.5 -127.5t-71.5 -333.5q0 -117 44 -178t128 -61q111 0 183.5 128t72.5 328z" />
    <glyph glyph-name="summation" unicode="&#x2211;" horiz-adv-x="1434" 
d="M12 1473h1135l98 -340h-74l-67 219q-8 27 -32 39t-73 12h-741l864 -850v-37l-858 -756h893q60 0 77.5 13t29.5 51l71 229h74l-135 -446h-1260v28l959 838l-961 950v50z" />
    <glyph glyph-name="product" unicode="&#x220f;" horiz-adv-x="1595" 
d="M57 1473h1479v-70h-186v-1727h186v-69h-555v69h197v1727h-762v-1727h196v-69h-555v69h187v1727h-187v70z" />
    <glyph glyph-name="pi" unicode="&#x3c0;" horiz-adv-x="1354" 
d="M1329 885l-35 -162h-329q-34 -179 -54 -452q-23 -314 -120 -314q-38 0 -58 24.5t-20 69.5q0 58 77 280.5t117 391.5h-375q-33 -177 -53 -448q-25 -318 -123 -318q-37 0 -57 25t-20 71q0 56 77.5 277t118.5 393h-133q-136 0 -180 -43.5t-72 -171.5h-59q37 207 117.5 292
t238.5 85h942z" />
    <glyph glyph-name="integral" unicode="&#x222b;" horiz-adv-x="1020" 
d="M301 -268q103 0 116 664q3 141 5 216q12 503 102 719.5t281 216.5q76 0 122 -39t46 -104q0 -48 -31 -77.5t-82 -29.5q-53 0 -85 35t-32 92q0 8 -6 15.5t-14 7.5q-105 0 -119 -634q-3 -157 -6 -245q-10 -308 -31.5 -461t-62.5 -247q-49 -114 -123 -173t-168 -59
q-73 0 -119.5 38t-46.5 97q0 53 31.5 84t83.5 31q47 0 79.5 -29t32.5 -67q0 -24 7.5 -37.5t19.5 -13.5z" />
    <glyph glyph-name="ordfeminine" unicode="&#xaa;" horiz-adv-x="778" 
d="M504 1071q-182 -48 -238.5 -86.5t-56.5 -101.5q0 -50 29 -79.5t79 -29.5q40 0 85 14.5t102 45.5v237zM651 1196v-414l21 -18l88 -8v-66h-236l-16 78q-72 -45 -132.5 -66.5t-113.5 -21.5q-91 0 -149 52t-58 132q0 100 80 155t369 120v39q0 88 -29 120.5t-102 32.5
q-26 0 -53.5 -5t-55.5 -15v-123h-114q-32 0 -45 11.5t-13 39.5q0 73 89.5 121.5t232.5 48.5q123 0 180 -51t57 -162z" />
    <glyph glyph-name="ordmasculine" unicode="&#xba;" horiz-adv-x="827" 
d="M414 1331q-92 0 -147.5 -78.5t-55.5 -210.5q0 -130 56 -209t147 -79q92 0 147 78t55 210t-55.5 210.5t-146.5 78.5zM414 1409q160 0 263 -103t103 -264q0 -160 -103 -262t-263 -102q-161 0 -264 102t-103 262q0 161 103 264t264 103z" />
    <glyph glyph-name="Omega" unicode="&#x3a9;" horiz-adv-x="1567" 
d="M1100 188v-26h313l66 203h61l-108 -365h-500q134 233 202 451t68 413q0 271 -107.5 416t-308.5 145t-309 -145t-108 -416q0 -195 68 -411t204 -453h-500l-110 365h61l68 -203h311v26q-165 203 -234 361.5t-69 327.5q0 272 174.5 446t443.5 174t443 -174.5t174 -445.5
q0 -169 -69 -327.5t-234 -361.5z" />
    <glyph glyph-name="ae" unicode="&#xe6;" horiz-adv-x="1485" 
d="M824 608h388q0 9 1 24.5t1 22.5q0 128 -46.5 194t-137.5 66q-97 0 -150.5 -79t-55.5 -228zM664 188v361q-249 -71 -326.5 -130t-77.5 -155q0 -75 42 -121.5t110 -46.5q52 0 113.5 22.5t138.5 69.5zM340 711h-143q-35 0 -48.5 13.5t-13.5 49.5q0 100 111 166t286 66
q101 0 163 -30t96 -93q55 62 122 92.5t148 30.5q160 0 248 -106t88 -300q0 -29 -0.5 -43.5t-1.5 -27.5l-572 -1v-284q66 -68 142 -100.5t165 -32.5q78 0 140.5 25t126.5 81v-113q-79 -61 -161.5 -91.5t-170.5 -30.5q-102 0 -195.5 38.5t-167.5 110.5q-100 -75 -187.5 -110
t-172.5 -35q-115 0 -184.5 69.5t-69.5 184.5q0 136 99.5 211t476.5 170v65q0 129 -41 179t-142 50q-37 0 -71.5 -8t-69.5 -24v-172z" />
    <glyph glyph-name="oslash" unicode="&#xf8;" horiz-adv-x="1104" 
d="M760 803l-379 -662q35 -36 76.5 -53.5t93.5 -17.5q132 0 211.5 115t79.5 309q0 92 -20.5 168t-61.5 141zM705 864q-34 26 -72 38.5t-82 12.5q-130 0 -208.5 -114t-78.5 -307q0 -78 15.5 -148t46.5 -133zM866 1147l70 -39l-107 -190q102 -77 150.5 -180.5t48.5 -243.5
q0 -225 -134.5 -368.5t-342.5 -143.5q-64 0 -121 14t-111 43l-118 -203l-66 41l119 209q-90 76 -134 177t-44 231q0 226 132.5 369t342.5 143q57 0 108.5 -11.5t100.5 -33.5z" />
    <glyph glyph-name="questiondown" unicode="&#xbf;" horiz-adv-x="995" 
d="M498 637h106v-299q-147 -55 -221 -147t-74 -220q0 -137 74.5 -212.5t210.5 -75.5h10l84 202q6 1 14 1.5t23 0.5q59 0 92 -28.5t33 -79.5q0 -81 -85.5 -136t-215.5 -55q-195 0 -310.5 100.5t-115.5 268.5q0 142 91.5 250t283.5 190v240zM551 1006q48 0 82.5 -34.5
t34.5 -82.5q0 -49 -34.5 -83t-82.5 -34q-49 0 -83 34t-34 83q0 48 34 82.5t83 34.5z" />
    <glyph glyph-name="exclamdown" unicode="&#xa1;" horiz-adv-x="692" 
d="M297 637h98l58 -783q1 -14 4 -41q6 -54 6 -77q0 -71 -30.5 -109.5t-86.5 -38.5t-86.5 38.5t-30.5 109.5q0 23 6 76q3 27 5 43zM346 1006q48 0 82.5 -34.5t34.5 -82.5q0 -49 -34.5 -83t-82.5 -34q-49 0 -83 34t-34 83q0 48 34.5 82.5t82.5 34.5z" />
    <glyph glyph-name="logicalnot" unicode="&#xac;" horiz-adv-x="1706" 
d="M254 858h1198v-502h-115v385h-1083v117z" />
    <glyph glyph-name="radical" unicode="&#x221a;" horiz-adv-x="1288" 
d="M1106 1647h182v-82h-119l-594 -1606h-53l-323 893l-119 -43l-23 68l262 92l265 -729z" />
    <glyph glyph-name="florin" unicode="&#x192;" horiz-adv-x="1139" 
d="M946 1149l-174 147q-87 -31 -122.5 -110t-35.5 -268v-164h332v-101h-331q0 -36 0.5 -77.5t0.5 -118.5q0 -220 -22 -347.5t-72 -215.5q-62 -109 -164.5 -174.5t-210.5 -65.5q-61 0 -98 31.5t-37 85.5q0 37 19 68.5t55 54.5l209 -117q83 48 118.5 142t35.5 286v448h-236
v101h236v153q0 133 29 215t100 152q57 57 134 91t150 34q78 0 127 -35t49 -90q0 -39 -22 -69.5t-70 -55.5z" />
    <glyph glyph-name="approxequal" unicode="&#x2248;" horiz-adv-x="1706" 
d="M1530 584v-131q-107 -75 -202 -110.5t-187 -35.5q-98 0 -288 69.5t-290 69.5q-82 0 -169.5 -35.5t-215.5 -123.5v131q108 74 203.5 110.5t183.5 36.5q111 0 301.5 -69.5t276.5 -69.5q85 0 173.5 35.5t213.5 122.5zM1530 934v-131q-104 -73 -200 -108.5t-187 -35.5
q-100 0 -290 69t-290 69q-83 0 -171.5 -36t-213.5 -122v131q106 73 202 109t185 36q111 0 300.5 -68.5t277.5 -68.5q87 0 175 35t212 121z" />
    <glyph glyph-name="Delta" unicode="&#x2206;" horiz-adv-x="1208" 
d="M555 1212l-389 -1042h768zM596 1497h29l555 -1497h-1151z" />
    <glyph glyph-name="guillemotleft" unicode="&#xab;" horiz-adv-x="905" 
d="M819 846v-135l-239 -219l239 -222v-133l-334 273v163zM416 846v-135l-240 -219l240 -222v-133l-336 273v163z" />
    <glyph glyph-name="guillemotright" unicode="&#xbb;" horiz-adv-x="905" 
d="M498 846l336 -273v-163l-336 -273v133l239 222l-239 219v135zM94 846l334 -273v-163l-334 -273v133l240 222l-240 219v135z" />
    <glyph glyph-name="ellipsis" unicode="&#x2026;" horiz-adv-x="2048" 
d="M1024 242q54 0 91.5 -38t37.5 -93q0 -54 -37.5 -91.5t-91.5 -37.5t-91.5 37.5t-37.5 91.5q0 55 37.5 93t91.5 38zM340 242q54 0 92.5 -39t38.5 -94q0 -54 -38.5 -90.5t-92.5 -36.5t-91.5 36.5t-37.5 90.5t37.5 92t91.5 41zM1706 242q54 0 92.5 -38.5t38.5 -92.5
t-38.5 -91.5t-92.5 -37.5t-91.5 37.5t-37.5 91.5q0 55 37.5 93t91.5 38z" />
    <glyph glyph-name="nonbreakingspace" unicode="&#xa0;" horiz-adv-x="1139" 
 />
    <glyph glyph-name="Agrave" unicode="&#xc0;" horiz-adv-x="1309" 
d="M614 1176l-202 -568h413zM582 1391h135l491 -1282l123 -25v-84h-465v84l127 10l15 29l-148 391h-483l-146 -391l21 -29l133 -10v-84h-401v84l118 25zM381 1825h202l174 -303h-102z" />
    <glyph glyph-name="Atilde" unicode="&#xc3;" horiz-adv-x="1309" 
d="M614 1176l-202 -568h413zM582 1391h135l491 -1282l123 -25v-84h-465v84l127 10l15 29l-148 391h-483l-146 -391l21 -29l133 -10v-84h-401v84l118 25zM882 1798h84v-22q0 -96 -46 -152.5t-124 -56.5q-68 0 -168 50t-127 50q-31 0 -51 -28t-20 -74v-17h-88v13
q0 103 44.5 160t125.5 57q63 0 162 -52.5t131 -52.5q37 0 57 32.5t20 92.5z" />
    <glyph glyph-name="Otilde" unicode="&#xd5;" horiz-adv-x="1497" 
d="M750 1298q-206 0 -327.5 -164.5t-121.5 -445.5q0 -279 123 -445.5t326 -166.5q202 0 324 166.5t122 445.5t-122 444.5t-324 165.5zM750 1409q131 0 244 -45t206 -135q104 -101 157.5 -238t53.5 -303q0 -167 -54 -305t-159 -240q-90 -87 -203.5 -131.5t-244.5 -44.5
q-132 0 -246.5 45t-204.5 131q-104 101 -157.5 239t-53.5 306q0 167 53 304t156 237q92 89 206.5 134.5t246.5 45.5zM977 1798h84v-22q0 -96 -46 -152.5t-124 -56.5q-68 0 -168 50t-127 50q-31 0 -51 -28t-20 -74v-17h-88v13q0 103 44.5 160t125.5 57q63 0 162 -52.5
t131 -52.5q37 0 57 32.5t20 92.5z" />
    <glyph glyph-name="OE" unicode="&#x152;" horiz-adv-x="2034" 
d="M1133 1124v250h770v-299h-115l-29 174l-28 31h-426v-518h286l31 29l20 149h97v-451h-97l-20 148l-31 31h-286v-574h499l31 33l33 207h108v-334h-843v252q-73 -132 -183.5 -200t-253.5 -68q-120 0 -225.5 43.5t-187.5 128.5q-96 97 -145.5 232t-49.5 300q0 163 49.5 297.5
t147.5 235.5q79 82 185.5 126t225.5 44q161 0 267.5 -65t169.5 -202zM717 1284q-190 0 -303 -161t-113 -437q0 -273 113.5 -434.5t302.5 -161.5t303.5 162t114.5 434q0 273 -114.5 435.5t-303.5 162.5z" />
    <glyph glyph-name="oe" unicode="&#x153;" horiz-adv-x="1673" 
d="M1587 539h-610v-7q0 -199 90 -311t248 -112q65 0 127 24t145 84v-113q-87 -63 -169.5 -93.5t-164.5 -30.5q-114 0 -205.5 51t-158.5 153q-75 -101 -164.5 -151.5t-192.5 -50.5q-199 0 -327.5 143t-128.5 369q0 225 128.5 368.5t327.5 143.5q119 0 213.5 -51.5
t155.5 -149.5q57 98 145 149.5t199 51.5q161 0 252.5 -107t91.5 -295q0 -26 -0.5 -40t-1.5 -25zM1405 625v28q0 126 -48.5 194t-137.5 68q-90 0 -153 -78t-79 -212h418zM535 915q-121 0 -194 -114t-73 -307q0 -192 73.5 -308t193.5 -116q121 0 193.5 114.5t72.5 309.5
q0 193 -72.5 307t-193.5 114z" />
    <glyph glyph-name="endash" unicode="&#x2013;" 
d="M0 555h1024v-125h-1024v125z" />
    <glyph glyph-name="emdash" unicode="&#x2014;" horiz-adv-x="2048" 
d="M0 430v125h2048v-125h-2048z" />
    <glyph glyph-name="quotedblleft" unicode="&#x201c;" horiz-adv-x="825" 
d="M680 1460h88q-84 -94 -124 -170.5t-40 -144.5q0 -20 1 -29.5t3 -17.5h133q14 -20 20.5 -37.5t6.5 -34.5q0 -53 -34.5 -87t-88.5 -34q-73 0 -117.5 51.5t-44.5 137.5q0 88 50 181t147 185zM268 1460h88q-84 -94 -123.5 -170.5t-39.5 -144.5q0 -20 0.5 -29.5t3.5 -17.5h131
q13 -20 19.5 -37.5t6.5 -34.5q0 -53 -34 -87t-89 -34q-72 0 -115.5 51.5t-43.5 137.5q0 88 49.5 181t146.5 185z" />
    <glyph glyph-name="quotedblright" unicode="&#x201d;" horiz-adv-x="825" 
d="M563 905h-88q84 94 124 170.5t40 145.5q0 19 -1 28.5t-3 18.5h-131q-14 19 -20.5 36.5t-6.5 34.5q0 54 33.5 87.5t87.5 33.5q73 0 117.5 -51.5t44.5 -136.5q0 -89 -50 -181.5t-147 -185.5zM152 905h-89q85 94 124.5 170.5t39.5 145.5q0 19 -1 28.5t-3 18.5h-133
q-14 19 -20.5 36.5t-6.5 34.5q0 54 34.5 87.5t88.5 33.5q73 0 117.5 -51.5t44.5 -136.5q0 -90 -49 -181.5t-147 -185.5z" />
    <glyph glyph-name="quoteleft" unicode="&#x2018;" horiz-adv-x="412" 
d="M268 1460h88q-84 -94 -123.5 -170.5t-39.5 -144.5q0 -20 0.5 -29.5t3.5 -17.5h131q13 -20 19.5 -37.5t6.5 -34.5q0 -53 -34 -87t-89 -34q-72 0 -115.5 51.5t-43.5 137.5q0 88 49.5 181t146.5 185z" />
    <glyph glyph-name="quoteright" unicode="&#x2019;" horiz-adv-x="412" 
d="M152 905h-89q85 94 124.5 170.5t39.5 145.5q0 19 -1 28.5t-3 18.5h-133q-14 19 -20.5 36.5t-6.5 34.5q0 54 34.5 87.5t88.5 33.5q73 0 117.5 -51.5t44.5 -136.5q0 -90 -49 -181.5t-147 -185.5z" />
    <glyph glyph-name="divide" unicode="&#xf7;" horiz-adv-x="1706" 
d="M854 365q48 0 81.5 -34t33.5 -81t-33.5 -81t-81.5 -34t-81.5 33.5t-33.5 81.5t34 81.5t81 33.5zM254 670h1198v-117h-1198v117zM854 1085q48 0 81.5 -33.5t33.5 -80.5q0 -48 -33.5 -81.5t-81.5 -33.5t-81.5 33.5t-33.5 81.5q0 47 34 80.5t81 33.5z" />
    <glyph glyph-name="lozenge" unicode="&#x25ca;" horiz-adv-x="1012" 
d="M506 1409l-385 -817l385 -825l385 825zM506 1653l500 -1061l-500 -1069l-500 1069z" />
    <glyph glyph-name="ydieresis" unicode="&#xff;" horiz-adv-x="1014" 
d="M-2 985h444v-76l-108 -8l-25 -33l246 -637l256 637l-16 33l-111 8v76h365v-76l-119 -16l-410 -995q-75 -181 -153 -262.5t-174 -81.5q-64 0 -103 31.5t-39 82.5q0 30 13.5 58t39.5 53l197 -78q45 48 87.5 127t78.5 180l-344 889l-125 12v76zM737 1415q43 0 73 -30.5
t30 -73.5t-30 -73t-73 -30t-73.5 30t-30.5 73q0 44 30 74t74 30zM357 1415q42 0 72 -30.5t30 -73.5t-29.5 -73t-72.5 -30q-44 0 -74.5 30t-30.5 73q0 44 30 74t75 30z" />
    <glyph glyph-name="Ydieresis" unicode="&#x178;" horiz-adv-x="1200" 
d="M-27 1374h476v-82l-117 -12l-21 -23l314 -563l344 547l-19 29l-125 22v82h418v-82l-125 -26l-426 -682v-461l33 -29l139 -10v-84h-530v84l139 10l33 29v434l-408 715l-125 20v82zM790 1778q43 0 73 -30.5t30 -74.5q0 -43 -30 -72.5t-73 -29.5t-73.5 30t-30.5 72
q0 45 30 75t74 30zM410 1778q42 0 72 -30.5t30 -74.5q0 -43 -29.5 -72.5t-72.5 -29.5q-44 0 -74.5 30t-30.5 72q0 45 30 75t75 30z" />
    <glyph glyph-name="fraction" unicode="&#x2215;" horiz-adv-x="379" 
d="M565 1374h125l-876 -1374h-125z" />
    <glyph glyph-name="currency" unicode="&#xa4;" horiz-adv-x="1139" 
d="M1071 47q-112 -39 -199.5 -55.5t-181.5 -16.5q-206 0 -333 137.5t-160 395.5h-168l20 86h139q-1 17 -1.5 35.5t-0.5 58.5q0 30 1.5 59.5t4.5 59.5h-163l20 86h156q43 235 179.5 370.5t328.5 135.5q75 0 148 -13.5t210 -56.5v-315h-104l-31 198l-27 37q-65 30 -112.5 42
t-100.5 12q-119 0 -198.5 -107t-106.5 -303h465l-20 -86l-453 -1q-2 -40 -3 -67t-1 -51q0 -40 0.5 -59t1.5 -35h399l-20 -86h-373q23 -217 104.5 -325.5t219.5 -108.5q44 0 88.5 6.5t89.5 19.5l33 33l49 238h100v-324z" />
    <glyph glyph-name="guilsinglleft" unicode="&#x2039;" horiz-adv-x="502" 
d="M416 846v-135l-240 -219l240 -222v-133l-336 273v163z" />
    <glyph glyph-name="guilsinglright" unicode="&#x203a;" horiz-adv-x="502" 
d="M94 846l334 -273v-163l-334 -273v133l240 222l-240 219v135z" />
    <glyph glyph-name="fi" unicode="&#xf001;" horiz-adv-x="1176" 
d="M817 1321q0 44 31 74t76 30t75.5 -30t30.5 -74q0 -45 -31 -76t-75 -31q-45 0 -76 31t-31 76zM653 1305l-157 114q-60 -34 -89.5 -111t-29.5 -200v-150h422l119 56h67v-897l33 -33l96 -10v-74h-446v74l110 10l35 33v745h-438v-745l35 -33l104 -10v-74h-455v74l109 10
l37 33v745h-131v64l131 32v27q0 238 113 388.5t286 150.5q63 0 100 -30t37 -79q0 -38 -21.5 -65t-66.5 -45z" />
    <glyph glyph-name="fl" unicode="&#xf002;" horiz-adv-x="1186" 
d="M950 1522h45v-1405l35 -33l117 -10v-74h-465v74l109 10l34 33v1249h-92l-71 -53l-152 114q-67 -31 -100 -110.5t-33 -208.5v-150h285v-96h-287v-745l35 -33l104 -10v-74h-455v74l109 10l37 33v745h-131v64l131 32v27q0 238 113 388.5t286 150.5q59 0 95 -26.5t42 -74.5z
" />
    <glyph glyph-name="daggerdbl" unicode="&#x2021;" 
d="M498 172h28l78 -287l-94 -155l-90 155zM840 309l149 -92l-149 -94l-289 72v32zM180 309l295 -82v-32l-295 -72l-145 94zM498 942h28l101 -340l-101 -342h-28l-101 342zM840 1081l149 -92l-149 -94l-289 72v32zM180 1081l295 -82v-32l-295 -72l-145 94zM510 1470l94 -155
l-78 -287h-28l-78 287z" />
    <glyph glyph-name="periodcentered" unicode="&#xb7;" horiz-adv-x="569" 
d="M285 817q54 0 91.5 -38t37.5 -93q0 -54 -38 -91.5t-91 -37.5q-54 0 -92.5 38t-38.5 91q0 55 38 93t93 38z" />
    <glyph glyph-name="quotesinglbase" unicode="&#x201a;" horiz-adv-x="412" 
d="M152 -336h-89q86 95 125 170.5t39 142.5q0 20 -1 29.5t-3 18.5h-131q-13 19 -19.5 37.5t-6.5 35.5q0 53 34 87t88 34q73 0 116.5 -51.5t43.5 -136.5q0 -89 -49.5 -181.5t-146.5 -185.5z" />
    <glyph glyph-name="quotedblbase" unicode="&#x201e;" horiz-adv-x="825" 
d="M565 -336h-88q85 95 124.5 170.5t39.5 142.5q0 20 -1 29.5t-3 18.5h-133q-13 19 -20 37.5t-7 35.5q0 53 34.5 87t88.5 34q73 0 116.5 -51.5t43.5 -136.5q0 -90 -49.5 -182.5t-145.5 -184.5zM152 -336h-89q86 95 125 170.5t39 142.5q0 20 -1 29.5t-3 18.5h-131
q-13 19 -19.5 37.5t-6.5 35.5q0 53 34 87t88 34q73 0 116.5 -51.5t43.5 -136.5q0 -89 -49.5 -181.5t-146.5 -185.5z" />
    <glyph glyph-name="perthousand" unicode="&#x2030;" horiz-adv-x="2509" 
d="M2132 762q-78 0 -119 -91.5t-41 -264.5q0 -176 40.5 -266.5t119.5 -90.5q81 0 122.5 90t41.5 267q0 173 -42 264.5t-122 91.5zM1370 762q-77 0 -118.5 -91.5t-41.5 -264.5q0 -176 40.5 -266.5t119.5 -90.5q81 0 122.5 90t41.5 267q0 173 -42 264.5t-122 91.5zM2136 834
q142 0 224.5 -114.5t82.5 -313.5q0 -201 -82.5 -316t-224.5 -115q-143 0 -225 114.5t-82 316.5q0 199 82.5 313.5t224.5 114.5zM1374 834q143 0 225 -114.5t82 -313.5q0 -201 -82 -316t-225 -115t-225 114.5t-82 316.5q0 199 82.5 313.5t224.5 114.5zM367 1325
q-78 0 -119 -90.5t-41 -263.5q0 -176 40.5 -266.5t119.5 -90.5q80 0 121.5 90.5t41.5 266.5q0 173 -41.5 263.5t-121.5 90.5zM1245 1374h125l-876 -1374h-123zM371 1399q142 0 224.5 -114.5t82.5 -313.5q0 -201 -82.5 -315.5t-224.5 -114.5q-143 0 -225.5 114t-82.5 316
q0 199 83 313.5t225 114.5z" />
    <glyph glyph-name="Acircumflex" unicode="&#xc2;" horiz-adv-x="1309" 
d="M614 1176l-202 -568h413zM582 1391h135l491 -1282l123 -25v-84h-465v84l127 10l15 29l-148 391h-483l-146 -391l21 -29l133 -10v-84h-401v84l118 25zM589 1825h132l225 -303h-111l-180 196l-178 -196h-113z" />
    <glyph glyph-name="Ecircumflex" unicode="&#xca;" horiz-adv-x="1180" 
d="M68 0v84l116 10l35 29v1128l-35 29l-116 12v82h981v-299h-115l-29 174l-28 31h-474v-518h336l29 29l20 149h97v-451h-97l-20 148l-29 31h-336v-574h549l29 33l35 207h106v-334h-1054zM524 1825h132l225 -303h-111l-180 196l-178 -196h-113z" />
    <glyph glyph-name="Aacute" unicode="&#xc1;" horiz-adv-x="1309" 
d="M614 1176l-202 -568h413zM582 1391h135l491 -1282l123 -25v-84h-465v84l127 10l15 29l-148 391h-483l-146 -391l21 -29l133 -10v-84h-401v84l118 25zM764 1827h204l-288 -303h-103z" />
    <glyph glyph-name="Edieresis" unicode="&#xcb;" horiz-adv-x="1180" 
d="M68 0v84l116 10l35 29v1128l-35 29l-116 12v82h981v-299h-115l-29 174l-28 31h-474v-518h336l29 29l20 149h97v-451h-97l-20 148l-29 31h-336v-574h549l29 33l35 207h106v-334h-1054zM780 1778q43 0 73 -30.5t30 -74.5q0 -43 -30 -72.5t-73 -29.5t-73.5 30t-30.5 72
q0 45 30 75t74 30zM400 1778q42 0 72 -30.5t30 -74.5q0 -43 -29.5 -72.5t-72.5 -29.5q-44 0 -74.5 30t-30.5 72q0 45 30 75t75 30z" />
    <glyph glyph-name="Egrave" unicode="&#xc8;" horiz-adv-x="1180" 
d="M68 0v84l116 10l35 29v1128l-35 29l-116 12v82h981v-299h-115l-29 174l-28 31h-474v-518h336l29 29l20 149h97v-451h-97l-20 148l-29 31h-336v-574h549l29 33l35 207h106v-334h-1054zM316 1825h202l174 -303h-102z" />
    <glyph glyph-name="Iacute" unicode="&#xcd;" horiz-adv-x="664" 
d="M72 0v84l131 10l35 29v1128l-35 29l-131 12v82h520v-82l-131 -12l-35 -29v-1128l35 -29l131 -10v-84h-520zM441 1827h204l-288 -303h-103z" />
    <glyph glyph-name="Icircumflex" unicode="&#xce;" horiz-adv-x="664" 
d="M72 0v84l131 10l35 29v1128l-35 29l-131 12v82h520v-82l-131 -12l-35 -29v-1128l35 -29l131 -10v-84h-520zM266 1825h132l225 -303h-111l-180 196l-178 -196h-113z" />
    <glyph glyph-name="Idieresis" unicode="&#xcf;" horiz-adv-x="664" 
d="M72 0v84l131 10l35 29v1128l-35 29l-131 12v82h520v-82l-131 -12l-35 -29v-1128l35 -29l131 -10v-84h-520zM522 1778q43 0 73 -30.5t30 -74.5q0 -43 -30 -72.5t-73 -29.5t-73.5 30t-30.5 72q0 45 30 75t74 30zM142 1778q42 0 72 -30.5t30 -74.5q0 -43 -29.5 -72.5
t-72.5 -29.5q-44 0 -74.5 30t-30.5 72q0 45 30 75t75 30z" />
    <glyph glyph-name="Igrave" unicode="&#xcc;" horiz-adv-x="664" 
d="M72 0v84l131 10l35 29v1128l-35 29l-131 12v82h520v-82l-131 -12l-35 -29v-1128l35 -29l131 -10v-84h-520zM58 1825h202l174 -303h-102z" />
    <glyph glyph-name="Oacute" unicode="&#xd3;" horiz-adv-x="1497" 
d="M750 1298q-206 0 -327.5 -164.5t-121.5 -445.5q0 -279 123 -445.5t326 -166.5q202 0 324 166.5t122 445.5t-122 444.5t-324 165.5zM750 1409q131 0 244 -45t206 -135q104 -101 157.5 -238t53.5 -303q0 -167 -54 -305t-159 -240q-90 -87 -203.5 -131.5t-244.5 -44.5
q-132 0 -246.5 45t-204.5 131q-104 101 -157.5 239t-53.5 306q0 167 53 304t156 237q92 89 206.5 134.5t246.5 45.5zM859 1827h204l-288 -303h-103z" />
    <glyph glyph-name="Ocircumflex" unicode="&#xd4;" horiz-adv-x="1497" 
d="M750 1298q-206 0 -327.5 -164.5t-121.5 -445.5q0 -279 123 -445.5t326 -166.5q202 0 324 166.5t122 445.5t-122 444.5t-324 165.5zM750 1409q131 0 244 -45t206 -135q104 -101 157.5 -238t53.5 -303q0 -167 -54 -305t-159 -240q-90 -87 -203.5 -131.5t-244.5 -44.5
q-132 0 -246.5 45t-204.5 131q-104 101 -157.5 239t-53.5 306q0 167 53 304t156 237q92 89 206.5 134.5t246.5 45.5zM684 1825h132l225 -303h-111l-180 196l-178 -196h-113z" />
    <glyph glyph-name="apple" unicode="&#xf000;" horiz-adv-x="1618" 
d="M836 1216q-1 6 -1.5 14t-0.5 23q0 124 95 229.5t236 131.5q1 -10 1.5 -23t0.5 -39q0 -131 -103.5 -234.5t-203.5 -103.5h-8q-3 0 -7.5 1t-8.5 1zM1505 403q-114 -247 -205 -342.5t-204 -95.5q-50 0 -131.5 33t-122.5 33q-45 0 -131 -33t-127 -33q-64 0 -128.5 44
t-129.5 132q-102 140 -157.5 295.5t-55.5 300.5q0 219 125 356.5t323 137.5q68 0 155 -34t124 -34q34 0 121.5 35t152.5 35q110 0 198 -40t161 -124q-102 -65 -151.5 -145.5t-49.5 -182.5q0 -113 60 -200t173 -138z" />
    <glyph glyph-name="Ograve" unicode="&#xd2;" horiz-adv-x="1497" 
d="M750 1298q-206 0 -327.5 -164.5t-121.5 -445.5q0 -279 123 -445.5t326 -166.5q202 0 324 166.5t122 445.5t-122 444.5t-324 165.5zM750 1409q131 0 244 -45t206 -135q104 -101 157.5 -238t53.5 -303q0 -167 -54 -305t-159 -240q-90 -87 -203.5 -131.5t-244.5 -44.5
q-132 0 -246.5 45t-204.5 131q-104 101 -157.5 239t-53.5 306q0 167 53 304t156 237q92 89 206.5 134.5t246.5 45.5zM476 1825h202l174 -303h-102z" />
    <glyph glyph-name="Uacute" unicode="&#xda;" horiz-adv-x="1421" 
d="M51 1374h502v-82l-127 -12l-35 -29v-741q0 -215 87.5 -313.5t277.5 -98.5q189 0 276.5 98.5t87.5 313.5v727l-39 37l-123 18v82h433v-82l-123 -18l-37 -37v-745q0 -147 -21 -225t-69 -136q-61 -74 -172 -115t-252 -41q-142 0 -252.5 41t-171.5 115q-48 59 -69 138
t-21 223v759l-35 29l-117 12v82zM881 1827h204l-288 -303h-103z" />
    <glyph glyph-name="Ucircumflex" unicode="&#xdb;" horiz-adv-x="1421" 
d="M51 1374h502v-82l-127 -12l-35 -29v-741q0 -215 87.5 -313.5t277.5 -98.5q189 0 276.5 98.5t87.5 313.5v727l-39 37l-123 18v82h433v-82l-123 -18l-37 -37v-745q0 -147 -21 -225t-69 -136q-61 -74 -172 -115t-252 -41q-142 0 -252.5 41t-171.5 115q-48 59 -69 138
t-21 223v759l-35 29l-117 12v82zM706 1825h132l225 -303h-111l-180 196l-178 -196h-113z" />
    <glyph glyph-name="Ugrave" unicode="&#xd9;" horiz-adv-x="1421" 
d="M51 1374h502v-82l-127 -12l-35 -29v-741q0 -215 87.5 -313.5t277.5 -98.5q189 0 276.5 98.5t87.5 313.5v727l-39 37l-123 18v82h433v-82l-123 -18l-37 -37v-745q0 -147 -21 -225t-69 -136q-61 -74 -172 -115t-252 -41q-142 0 -252.5 41t-171.5 115q-48 59 -69 138
t-21 223v759l-35 29l-117 12v82zM498 1825h202l174 -303h-102z" />
    <glyph glyph-name="dotlessi" unicode="&#x131;" horiz-adv-x="573" 
d="M307 995h80v-878l35 -33l110 -10v-74h-460v74l108 10l35 33v741h-143v64z" />
    <glyph glyph-name="circumflex" unicode="&#x2c6;" 
d="M446 1507h132l225 -389h-111l-180 289l-178 -289h-113z" />
    <glyph glyph-name="tilde" unicode="&#x2dc;" 
d="M739 1450h84q0 -5 1 -15t1 -14q0 -97 -48 -157t-124 -60q-70 0 -171 51.5t-124 51.5q-33 0 -53 -29.5t-20 -79.5q0 -4 1 -12t1 -12h-88v20q0 110 44.5 167.5t129.5 57.5q61 0 158.5 -53t127.5 -53q41 0 60.5 31.5t19.5 95.5v10z" />
    <glyph glyph-name="macron" unicode="&#xaf;" 
d="M209 1368h616v-123h-616v123z" />
    <glyph glyph-name="breve" unicode="&#x2d8;" 
d="M223 1452h80v-16q0 -80 47 -113t164 -33q115 0 161 33t46 113v16h82v-22q0 -145 -66 -207t-223 -62q-159 0 -225 61t-66 208v22z" />
    <glyph glyph-name="dotaccent" unicode="&#x2d9;" 
d="M512 1425q47 0 79 -31.5t32 -78.5q0 -45 -32.5 -76t-78.5 -31t-77.5 31t-31.5 76q0 46 31.5 78t77.5 32z" />
    <glyph glyph-name="ring" unicode="&#x2da;" 
d="M512 1509q-61 0 -104 -44t-43 -107q0 -62 43 -105t104 -43q63 0 107.5 43t44.5 105q0 63 -44.5 107t-107.5 44zM512 1599q102 0 172 -69t70 -170q0 -102 -70.5 -172t-171.5 -70t-170.5 70t-69.5 172q0 101 69.5 170t170.5 69z" />
    <glyph glyph-name="cedilla" unicode="&#xb8;" 
d="M453 0h75l1 -125q6 1 14.5 1.5t23.5 0.5q74 0 115 -39t41 -108q0 -86 -65 -136.5t-177 -50.5q-32 0 -67.5 5.5t-73.5 15.5v74q30 -9 59.5 -13t61.5 -4q63 0 100 24t37 64q0 36 -27 56t-75 20q-7 0 -16.5 -1t-26.5 -3v219z" />
    <glyph glyph-name="hungarumlaut" unicode="&#x2dd;" 
d="M768 1507h201l-387 -389h-97zM465 1507h180l-289 -389h-84z" />
    <glyph glyph-name="ogonek" unicode="&#x2db;" 
d="M512 0h90q-53 -45 -81.5 -102t-28.5 -115q0 -57 29.5 -87t86.5 -30q16 0 55 6q9 2 13 2v-102q-30 -8 -56 -12t-49 -4q-96 0 -147 45.5t-51 130.5q0 74 37 146t102 122z" />
    <glyph glyph-name="caron" unicode="&#x2c7;" 
d="M221 1507h113l178 -288l180 288h111l-225 -389h-132z" />
    <glyph glyph-name="Lslash" unicode="&#x141;" horiz-adv-x="1065" 
d="M55 1374h500v-82l-117 -12l-35 -29v-417l193 127l53 -78l-246 -166v-623h463l29 33l35 246h106v-373h-981v84l129 10l35 29v473l-149 -102l-50 81l199 134v542l-35 29l-129 12v82z" />
    <glyph glyph-name="lslash" unicode="&#x142;" horiz-adv-x="578" 
d="M305 1507h78v-647l176 117l53 -80l-229 -154v-626l37 -33l117 -10v-74h-480v74l121 10l35 33v512l-154 -105l-49 82l203 135v629h-158v64z" />
    <glyph glyph-name="Scaron" unicode="&#x160;" horiz-adv-x="1139" 
d="M123 41v360h121l24 -235l27 -35q45 -23 103 -35t126 -12q144 0 227 66.5t83 179.5q0 57 -17 97t-53 69q-62 48 -212 111q-40 17 -61 26q-210 91 -278 169.5t-68 203.5q0 176 129.5 284.5t343.5 108.5q86 0 172.5 -14.5t176.5 -43.5v-317h-107l-31 195l-30 34
q-39 22 -85 32.5t-100 10.5q-128 0 -203 -66.5t-75 -180.5q0 -83 52.5 -137.5t234.5 -131.5q18 -7 55 -22q176 -71 254 -146q44 -42 67 -99.5t23 -125.5q0 -185 -145 -298.5t-385 -113.5q-106 0 -199.5 17t-169.5 49zM672 1522h-132l-225 303h111l180 -195l178 195h113z" />
    <glyph glyph-name="scaron" unicode="&#x161;" horiz-adv-x="819" 
d="M705 961v-232h-101l-16 145q-41 22 -78 33t-74 11q-80 0 -125 -39t-45 -109q0 -57 36 -97t138 -89q15 -7 46 -21q120 -54 173 -98q37 -29 56.5 -74.5t19.5 -101.5q0 -144 -101.5 -225.5t-281.5 -81.5q-72 0 -139.5 10.5t-126.5 32.5v266h98l25 -174q42 -24 86.5 -35.5
t95.5 -11.5q82 0 133 45.5t51 117.5q0 62 -36 102.5t-172 102.5q-154 69 -209.5 130t-55.5 151q0 137 95 212t268 75q69 0 128.5 -11.5t111.5 -33.5zM133 1507h113l178 -288l180 288h111l-225 -389h-132z" />
    <glyph glyph-name="Zcaron" unicode="&#x17d;" horiz-adv-x="1200" 
d="M137 1374h957v-86l-779 -1188h619l22 27l37 244h111v-371h-1012v84l776 1192h-546l-39 -27l-33 -192h-113v317zM666 1522h-132l-225 303h111l180 -195l178 195h113z" />
    <glyph glyph-name="zcaron" unicode="&#x17e;" horiz-adv-x="958" 
d="M92 0v102l547 789h-379l-29 -33l-22 -158h-96v285h739v-78l-567 -813h440l31 33l22 174h105v-301h-791zM213 1507h113l178 -288l180 288h111l-225 -389h-132z" />
    <glyph glyph-name="brokenbar" unicode="&#xa6;" 
d="M449 408h126v-758h-126v758zM449 1432h126v-758h-126v758z" />
    <glyph glyph-name="Eth" unicode="&#xd0;" horiz-adv-x="1419" 
d="M403 670v-576h162q280 0 418.5 147.5t138.5 446.5t-137.5 445.5t-419.5 146.5h-162v-512h340v-98h-340zM573 1374q360 0 558 -179.5t198 -506.5q0 -183 -64.5 -324.5t-191.5 -236.5q-88 -67 -202 -97t-298 -30h-505v84l116 10l35 29v547h-188v98h188v483l-35 29l-116 12
v82h505z" />
    <glyph glyph-name="eth" unicode="&#xf0;" horiz-adv-x="1081" 
d="M752 883q-44 13 -85 19.5t-77 6.5q-158 0 -245 -108.5t-87 -304.5q0 -197 80 -313.5t213 -116.5q125 0 205 119t80 311q0 130 -20.5 223t-63.5 164zM700 981q-40 64 -80.5 120.5t-82.5 106.5l-263 -157l-45 77l240 146l-74 84l-166 14v60l232 69l145 -149l225 135l46 -80
l-211 -127q177 -205 260.5 -382.5t83.5 -350.5q0 -250 -134 -408.5t-339 -158.5q-207 0 -338 145.5t-131 374.5q0 219 140.5 357t362.5 138q25 0 55 -3t74 -11z" />
    <glyph glyph-name="Yacute" unicode="&#xdd;" horiz-adv-x="1200" 
d="M-27 1374h476v-82l-117 -12l-21 -23l314 -563l344 547l-19 29l-125 22v82h418v-82l-125 -26l-426 -682v-461l33 -29l139 -10v-84h-530v84l139 10l33 29v434l-408 715l-125 20v82zM709 1827h204l-288 -303h-103z" />
    <glyph glyph-name="yacute" unicode="&#xfd;" horiz-adv-x="1014" 
d="M-2 985h444v-76l-108 -8l-25 -33l246 -637l256 637l-16 33l-111 8v76h365v-76l-119 -16l-410 -995q-75 -181 -153 -262.5t-174 -81.5q-64 0 -103 31.5t-39 82.5q0 30 13.5 58t39.5 53l197 -78q45 48 87.5 127t78.5 180l-344 889l-125 12v76zM668 1507h203l-299 -389h-103
z" />
    <glyph glyph-name="Thorn" unicode="&#xde;" horiz-adv-x="1143" 
d="M410 381q40 -4 74.5 -6t60.5 -2q175 0 266.5 86t91.5 252q0 160 -94 236.5t-291 76.5q-43 0 -65.5 -1t-42.5 -3v-639zM72 1374h497v-82l-127 -12l-32 -29v-135h112q301 0 435.5 -94t134.5 -303q0 -208 -141.5 -326.5t-389.5 -118.5q-23 0 -56 2.5t-95 8.5v-162l32 -29
l127 -10v-84h-497v84l118 10l33 29v1128l-33 29l-118 12v82z" />
    <glyph glyph-name="thorn" unicode="&#xfe;" horiz-adv-x="1128" 
d="M371 119q48 -16 92.5 -24.5t83.5 -8.5q152 0 246 114t94 300q0 173 -81.5 275t-217.5 102q-51 0 -105.5 -17.5t-111.5 -52.5v-688zM57 -446v73l109 11l35 32v1700h-160v64l252 73h78v-624q81 63 155 93t146 30q173 0 284 -133.5t111 -344.5q0 -242 -137.5 -388
t-366.5 -146q-40 0 -87.5 4.5t-104.5 13.5v-342l37 -32l129 -11v-73h-480z" />
    <glyph glyph-name="minus" unicode="&#x2212;" horiz-adv-x="1706" 
d="M254 670h1198v-119h-1198v119z" />
    <glyph glyph-name="multiply" unicode="&#xd7;" horiz-adv-x="1706" 
d="M381 1169l477 -477l475 477l82 -82l-475 -477l475 -475l-82 -82l-475 475l-477 -475l-80 82l475 475l-475 477z" />
    <glyph glyph-name="onesuperior" unicode="&#xb9;" horiz-adv-x="717" 
d="M399 1368h37v-764l17 -18l139 -6v-52h-432v52l147 8l17 22v660l-203 -33v51z" />
    <glyph glyph-name="twosuperior" unicode="&#xb2;" horiz-adv-x="717" 
d="M182 625h387l25 104h57v-201h-598v78q288 223 368.5 322.5t80.5 191.5q0 87 -47 136t-129 49q-31 0 -59.5 -7t-59.5 -22v-131q-9 -9 -23 -14t-30 -5q-33 0 -51.5 18t-18.5 50q0 69 79 121.5t191 52.5q124 0 195.5 -62.5t71.5 -170.5q0 -97 -89 -204t-350 -306z" />
    <glyph glyph-name="threesuperior" unicode="&#xb3;" horiz-adv-x="717" 
d="M410 963q105 -8 165 -60.5t60 -136.5q0 -108 -92 -180t-234 -72q-105 0 -180.5 41.5t-75.5 93.5q0 28 20 46t52 18q8 0 17.5 -1.5t21.5 -5.5l41 -104q25 -15 51.5 -22t56.5 -7q87 0 145 55.5t58 137.5q0 74 -49.5 114t-140.5 40q-27 0 -42 -1t-28 -4v72h29
q95 0 146.5 41.5t51.5 116.5q0 73 -44 116.5t-120 43.5q-34 0 -64 -8.5t-58 -26.5v-117q-11 -8 -22 -11t-30 -3q-30 0 -49.5 18t-19.5 47q0 66 78.5 115t191.5 49q116 0 186 -56.5t70 -150.5q0 -70 -49.5 -121t-142.5 -77z" />
    <glyph glyph-name="onequarter" unicode="&#xbc;" horiz-adv-x="1812" 
d="M1546 698l-319 -381h319v381zM1571 831h78v-514h143v-79h-143v-283h-103v283h-416v79zM1282 1374h125l-877 -1374h-124zM399 1368h37v-764l17 -18l139 -6v-52h-432v52l147 8l17 22v660l-203 -33v51z" />
    <glyph glyph-name="onehalf" unicode="&#xbd;" horiz-adv-x="1812" 
d="M1278 96h387l25 105h57v-201h-598v78q288 223 368 322t80 192q0 86 -46.5 135t-129.5 49q-30 0 -58.5 -7t-59.5 -21v-132q-9 -8 -23 -13t-31 -5q-33 0 -51 18t-18 50q0 69 79 121.5t191 52.5q124 0 195 -63t71 -171q0 -97 -88.5 -204t-349.5 -306zM1282 1374h125
l-877 -1374h-124zM399 1368h37v-764l17 -18l139 -6v-52h-432v52l147 8l17 22v660l-203 -33v51z" />
    <glyph glyph-name="threequarters" unicode="&#xbe;" horiz-adv-x="1815" 
d="M1546 698l-319 -381h319v381zM1571 831h78v-514h143v-79h-143v-283h-103v283h-416v79zM1282 1374h125l-877 -1374h-124zM410 963q105 -8 165 -60.5t60 -136.5q0 -108 -92 -180t-234 -72q-105 0 -180.5 41.5t-75.5 93.5q0 28 20 46t52 18q8 0 17.5 -1.5t21.5 -5.5l41 -104
q25 -15 51.5 -22t56.5 -7q87 0 145 55.5t58 137.5q0 74 -49.5 114t-140.5 40q-27 0 -42 -1t-28 -4v72h29q95 0 146.5 41.5t51.5 116.5q0 73 -44 116.5t-120 43.5q-34 0 -64 -8.5t-58 -26.5v-117q-11 -8 -22 -11t-30 -3q-30 0 -49.5 18t-19.5 47q0 66 78.5 115t191.5 49
q116 0 186 -56.5t70 -150.5q0 -70 -49.5 -121t-142.5 -77z" />
    <glyph glyph-name="franc" unicode="&#x20a3;" horiz-adv-x="1882" 
d="M68 0v84l116 10l35 29v1128l-35 29l-133 12v82h983v-319h-112l-31 194l-27 31h-461v-539h336l29 29l20 150h97v-453h-97l-20 149l-29 31h-336v-524l35 -29l146 -10v-84h-516zM1161 0v74l109 10l35 33v741h-144v64l238 73h78v-194q48 51 102.5 100.5t116.5 99.5
q9 3 19.5 4t31.5 1q31 0 61 -6.5t62 -20.5v-176h-65q-21 25 -46.5 37t-58.5 12q-41 0 -91 -37t-132 -133v-565l35 -33l143 -10v-74h-494z" />
    <glyph glyph-name="Gbreve" unicode="&#x11e;" horiz-adv-x="1421" 
d="M854 659h512v-84l-113 -10l-34 -28v-490q-125 -36 -230 -54t-194 -18q-102 0 -191.5 21t-161.5 61q-165 94 -259.5 262t-94.5 369q0 326 199 518.5t536 192.5q93 0 192 -15t202 -45v-325h-115l-31 186l-29 37q-58 27 -115.5 40t-117.5 13q-237 0 -373.5 -157t-136.5 -431
q0 -287 141.5 -452.5t384.5 -165.5q47 0 99.5 6.5t109.5 20.5v426l-35 28l-145 10v84zM524 1804h80q8 -75 50.5 -104t160.5 -29q114 0 155.5 28.5t51.5 104.5h82v-24q0 -127 -67 -181.5t-222 -54.5q-158 0 -224.5 54.5t-66.5 181.5v24z" />
    <glyph glyph-name="gbreve" unicode="&#x11f;" horiz-adv-x="1071" 
d="M422 61q-83 -25 -129.5 -79t-46.5 -123q0 -93 77.5 -152t200.5 -59q130 0 214.5 62.5t84.5 154.5q0 70 -37 103t-165 57zM504 926q-92 0 -146.5 -68.5t-54.5 -183.5q0 -114 55.5 -183t145.5 -69t145.5 69t55.5 183t-55 183t-146 69zM756 948h293v-96h-228q30 -42 45 -89
t15 -101q0 -141 -108.5 -230.5t-283.5 -89.5h-34q-12 -23 -17.5 -46.5t-5.5 -49.5q0 -12 3 -39q1 -4 1 -6l197 -31q193 -29 272.5 -87t79.5 -165q0 -59 -34 -120.5t-93 -108.5q-79 -66 -183.5 -100.5t-221.5 -34.5q-174 0 -272.5 70t-98.5 194q0 99 60 167.5t163 86.5
q-11 22 -16.5 45t-5.5 47q0 39 24 87t74 107q-118 28 -186 111t-68 199q0 151 109.5 244.5t287.5 93.5q60 0 116.5 -14t115.5 -44zM248 1452h80v-16q0 -80 47 -113t164 -33q115 0 161 33t46 113v16h82v-22q0 -145 -66 -207t-223 -62q-159 0 -225 61t-66 208v22z" />
    <glyph glyph-name="Idotaccent" unicode="&#x130;" horiz-adv-x="664" 
d="M72 0v84l131 10l35 29v1128l-35 29l-131 12v82h520v-82l-131 -12l-35 -29v-1128l35 -29l131 -10v-84h-520zM332 1784q46 0 78.5 -32.5t32.5 -78.5q0 -44 -33 -76t-78 -32t-77 32t-32 76q0 47 31.5 79t77.5 32z" />
    <glyph glyph-name="Scedilla" unicode="&#x15e;" horiz-adv-x="1139" 
d="M123 41v360h121l24 -235l27 -35q45 -23 103 -35t126 -12q144 0 227 66.5t83 179.5q0 57 -17 97t-53 69q-62 48 -212 111q-40 17 -61 26q-210 91 -278 169.5t-68 203.5q0 176 129.5 284.5t343.5 108.5q86 0 172.5 -14.5t176.5 -43.5v-317h-107l-31 195l-30 34
q-39 22 -85 32.5t-100 10.5q-128 0 -203 -66.5t-75 -180.5q0 -83 52.5 -137.5t234.5 -131.5q18 -7 55 -22q176 -71 254 -146q44 -42 67 -99.5t23 -125.5q0 -185 -145 -298.5t-385 -113.5q-106 0 -199.5 17t-169.5 49zM492 0h75l1 -125q6 1 14.5 1.5t23.5 0.5q74 0 115 -39
t41 -108q0 -86 -65 -136.5t-177 -50.5q-32 0 -67.5 5.5t-73.5 15.5v74q30 -9 59.5 -13t61.5 -4q63 0 100 24t37 64q0 36 -27 56t-75 20q-7 0 -16.5 -1t-26.5 -3v219z" />
    <glyph glyph-name="scedilla" unicode="&#x15f;" horiz-adv-x="819" 
d="M705 961v-232h-101l-16 145q-41 22 -78 33t-74 11q-80 0 -125 -39t-45 -109q0 -57 36 -97t138 -89q15 -7 46 -21q120 -54 173 -98q37 -29 56.5 -74.5t19.5 -101.5q0 -144 -101.5 -225.5t-281.5 -81.5q-72 0 -139.5 10.5t-126.5 32.5v266h98l25 -174q42 -24 86.5 -35.5
t95.5 -11.5q82 0 133 45.5t51 117.5q0 62 -36 102.5t-172 102.5q-154 69 -209.5 130t-55.5 151q0 137 95 212t268 75q69 0 128.5 -11.5t111.5 -33.5zM351 0h75l1 -125q6 1 14.5 1.5t23.5 0.5q74 0 115 -39t41 -108q0 -86 -65 -136.5t-177 -50.5q-32 0 -67.5 5.5t-73.5 15.5
v74q30 -9 59.5 -13t61.5 -4q63 0 100 24t37 64q0 36 -27 56t-75 20q-7 0 -16.5 -1t-26.5 -3v219z" />
    <glyph glyph-name="Cacute" unicode="&#x106;" horiz-adv-x="1294" 
d="M1204 47q-101 -35 -206 -53.5t-207 -18.5q-101 0 -189 21t-160 61q-165 94 -259.5 262.5t-94.5 368.5q0 320 195.5 515.5t515.5 195.5q90 0 191.5 -17.5t213.5 -52.5v-315h-114l-31 186l-27 37q-59 27 -115 40t-114 13q-235 0 -369.5 -160t-134.5 -442q0 -278 144 -441
t391 -163q44 0 88.5 6.5t89.5 20.5l32 32l50 228h110v-324zM914 1827h204l-288 -303h-103z" />
    <glyph glyph-name="cacute" unicode="&#x107;" horiz-adv-x="913" 
d="M870 86q-86 -50 -169 -75t-164 -25q-208 0 -334.5 139.5t-126.5 368.5q0 227 134.5 369.5t350.5 142.5q143 0 225 -53.5t82 -145.5q0 -47 -30.5 -78t-77.5 -31q-29 0 -52.5 7t-45.5 22v168q-24 14 -49 21.5t-50 7.5q-135 0 -218 -114t-83 -302q0 -187 93.5 -294.5
t254.5 -107.5q65 0 129 21.5t131 65.5v-107zM666 1507h203l-299 -389h-103z" />
    <glyph glyph-name="Ccaron" unicode="&#x10c;" horiz-adv-x="1294" 
d="M1204 47q-101 -35 -206 -53.5t-207 -18.5q-101 0 -189 21t-160 61q-165 94 -259.5 262.5t-94.5 368.5q0 320 195.5 515.5t515.5 195.5q90 0 191.5 -17.5t213.5 -52.5v-315h-114l-31 186l-27 37q-59 27 -115 40t-114 13q-235 0 -369.5 -160t-134.5 -442q0 -278 144 -441
t391 -163q44 0 88.5 6.5t89.5 20.5l32 32l50 228h110v-324zM871 1522h-132l-225 303h111l180 -195l178 195h113z" />
    <glyph glyph-name="ccaron" unicode="&#x10d;" horiz-adv-x="913" 
d="M870 86q-86 -50 -169 -75t-164 -25q-208 0 -334.5 139.5t-126.5 368.5q0 227 134.5 369.5t350.5 142.5q143 0 225 -53.5t82 -145.5q0 -47 -30.5 -78t-77.5 -31q-29 0 -52.5 7t-45.5 22v168q-24 14 -49 21.5t-50 7.5q-135 0 -218 -114t-83 -302q0 -187 93.5 -294.5
t254.5 -107.5q65 0 129 21.5t131 65.5v-107zM254 1507h113l178 -288l180 288h111l-225 -389h-132z" />
    <glyph glyph-name="dcroat" unicode="&#x111;" horiz-adv-x="1157" 
d="M784 182v703q-57 17 -101 25t-79 8q-157 0 -253.5 -116t-96.5 -306q0 -177 83.5 -281t223.5 -104q53 0 108.5 17.5t114.5 53.5zM784 1165h-288v95h288v110h-157v64l250 73h77v-247h131v-95h-131v-1048l35 -33l98 -10v-74h-303v106q-80 -64 -156 -94t-159 -30
q-172 0 -283.5 134.5t-111.5 344.5q0 243 147.5 395t382.5 152q41 0 85.5 -5.5t94.5 -17.5v180z" />
    <glyph glyph-name="sfthyphen" unicode="&#xad;" horiz-adv-x="653" 
d="M96 561h461v-137h-461v137z" />
    <glyph glyph-name="periodcentered" unicode="&#x2219;" horiz-adv-x="569" 
d="M285 817q54 0 91.5 -38t37.5 -93q0 -54 -38 -91.5t-91 -37.5q-54 0 -92.5 38t-38.5 91q0 55 38 93t93 38z" />
    <glyph glyph-name="euro" horiz-adv-x="1139" 
d="M1071 47q-112 -39 -199.5 -55.5t-181.5 -16.5q-206 0 -333 137.5t-160 395.5h-168l20 86h139q-1 17 -1.5 35.5t-0.5 58.5q0 30 1.5 59.5t4.5 59.5h-163l20 86h156q43 235 179.5 370.5t328.5 135.5q75 0 148 -13.5t210 -56.5v-315h-104l-31 198l-27 37q-65 30 -112.5 42
t-100.5 12q-119 0 -198.5 -107t-106.5 -303h465l-20 -86l-453 -1q-2 -40 -3 -67t-1 -51q0 -40 0.5 -59t1.5 -35h399l-20 -86h-373q23 -217 104.5 -325.5t219.5 -108.5q44 0 88.5 6.5t89.5 19.5l33 33l49 238h100v-324z" />
    <glyph glyph-name="euro" unicode="&#x20ac;" horiz-adv-x="1139" 
d="M1071 47q-112 -39 -199.5 -55.5t-181.5 -16.5q-206 0 -333 137.5t-160 395.5h-168l20 86h139q-1 17 -1.5 35.5t-0.5 58.5q0 30 1.5 59.5t4.5 59.5h-163l20 86h156q43 235 179.5 370.5t328.5 135.5q75 0 148 -13.5t210 -56.5v-315h-104l-31 198l-27 37q-65 30 -112.5 42
t-100.5 12q-119 0 -198.5 -107t-106.5 -303h465l-20 -86l-453 -1q-2 -40 -3 -67t-1 -51q0 -40 0.5 -59t1.5 -35h399l-20 -86h-373q23 -217 104.5 -325.5t219.5 -108.5q44 0 88.5 6.5t89.5 19.5l33 33l49 238h100v-324z" />
    <glyph glyph-name="c6460" 
d="M702 1778q43 0 73 -30.5t30 -74.5q0 -43 -30 -72.5t-73 -29.5t-73.5 30t-30.5 72q0 45 30 75t74 30zM322 1778q42 0 72 -30.5t30 -74.5q0 -43 -29.5 -72.5t-72.5 -29.5q-44 0 -74.5 30t-30.5 72q0 45 30 75t75 30z" />
    <glyph glyph-name="c6461" 
d="M453 0h75l1 -125q6 1 14.5 1.5t23.5 0.5q74 0 115 -39t41 -108q0 -86 -65 -136.5t-177 -50.5q-32 0 -67.5 5.5t-73.5 15.5v74q30 -9 59.5 -13t61.5 -4q63 0 100 24t37 64q0 36 -27 56t-75 20q-7 0 -16.5 -1t-26.5 -3v219z" />
    <glyph glyph-name="c6462" 
d="M621 1827h204l-288 -303h-103z" />
    <glyph glyph-name="c6463" 
d="M739 1798h84v-22q0 -96 -46 -152.5t-124 -56.5q-68 0 -168 50t-127 50q-31 0 -51 -28t-20 -74v-17h-88v13q0 103 44.5 160t125.5 57q63 0 162 -52.5t131 -52.5q37 0 57 32.5t20 92.5z" />
    <glyph glyph-name="c6464" 
d="M238 1825h202l174 -303h-102z" />
    <glyph glyph-name="c6465" 
d="M446 1825h132l225 -303h-111l-180 196l-178 -196h-113z" />
    <glyph glyph-name="c6468" 
d="M578 1522h-132l-225 303h111l180 -195l178 195h113z" />
    <glyph glyph-name="c6469" 
d="M223 1804h80q8 -75 50.5 -104t160.5 -29q114 0 155.5 28.5t51.5 104.5h82v-24q0 -127 -67 -181.5t-222 -54.5q-158 0 -224.5 54.5t-66.5 181.5v24z" />
    <glyph glyph-name="c6470" 
d="M512 1784q46 0 78.5 -32.5t32.5 -78.5q0 -44 -33 -76t-78 -32t-77 32t-32 76q0 47 31.5 79t77.5 32z" />
    </font>
</defs>
</svg>
